<mxfile host="app.diagrams.net" modified="2024-05-27T16:15:09.840Z" agent="Mozilla/5.0 (Windows NT 10.0; Win64; x64) AppleWebKit/537.36 (KHTML, like Gecko) Chrome/124.0.0.0 Safari/537.36" etag="ffge5YfESVj8fCnMRXP1" version="24.4.4" type="device" pages="4">
  <diagram id="88791pkOKjlueoCyB8XX" name="Use Case" />
  <diagram id="yT0fFGL2xnqn0C0Hu5fn" name="Class Diagram">
    <mxGraphModel dx="1877" dy="1699" grid="1" gridSize="10" guides="1" tooltips="1" connect="1" arrows="1" fold="1" page="1" pageScale="1" pageWidth="827" pageHeight="1169" math="0" shadow="0">
      <root>
        <mxCell id="0" />
        <mxCell id="1" parent="0" />
        <UserObject label="" plantUmlData="{&#xa;  &quot;data&quot;: &quot;@startuml\n\nclass User {\n    +userId\n    +userName\n    +userEmail\n    +userPhone\n    +userPassword\n    +userGender\n    +userRole\n    +userDetails\n    +createNewUser()\n    +modifyUser()\n}\n\nclass Car {\n    +carId\n    +carUserRef\n    +carModel\n    +carTierRef\n    +carLocation\n    +modifyCar()\n    +createNewCar()\n    +refreshLocation()\n}\n\nclass Booking {\n    +bookingId\n    +bookingDriverRef\n    +bookingCustomerRef\n    +bookingTime\n    +bookingDuration\n    +bookingStatus\n    +bookingStartPoint\n    +bookingEndPoint\n    +createBooking()\n    +updateStatus()\n    +modifyUser()\n}\n\nclass Tier {\n    +tierId\n    +tierName\n    +tierPrice\n    +tierOrder\n    +modifyTier()\n    +createNewTier()\n}\n\nclass Server {\n    +serverID\n    +serverStatus\n    +serverLocation\n    +login()\n    +calcPrice()\n    +createBooking()\n    +searchAvailableCar()\n    +processPayment()\n    +rateDriver()\n    +getTierList()\n    +contactSupport()\n}\n\nclass Message {\n    +messageId\n    +messageTime\n    +messageSenderRef\n    +messageRecipientRef\n    +messagePriority\n    +messageContext\n    +messageAttachments\n    +messageBookingRef\n    +createMessage()\n    +updateMessage()\n    +getMessageThread()\n}\n\nclass Rate {\n    +rateId\n    +rateSenderRef\n    +rateRecipientRef\n    +rateStars\n    +rateDescription\n    +createNewRate()\n}\n\nUser --&gt; Booking\nBooking --&gt; Car\nBooking --&gt; Tier\nBooking --&gt; Server\nBooking --&gt; Message\nBooking --&gt; Rate\n\n@enduml\n&quot;,&#xa;  &quot;format&quot;: &quot;svg&quot;&#xa;}" id="suvn6tefOP-94fsnbR0B-1">
          <mxCell style="shape=image;noLabel=1;verticalAlign=top;aspect=fixed;imageAspect=0;image=data:image/svg+xml,PD94bWwgdmVyc2lvbj0iMS4wIiBlbmNvZGluZz0idXMtYXNjaWkiIHN0YW5kYWxvbmU9Im5vIj8+PHN2ZyB4bWxucz0iaHR0cDovL3d3dy53My5vcmcvMjAwMC9zdmciIHhtbG5zOnhsaW5rPSJodHRwOi8vd3d3LnczLm9yZy8xOTk5L3hsaW5rIiBjb250ZW50U3R5bGVUeXBlPSJ0ZXh0L2NzcyIgaGVpZ2h0PSI3NTdweCIgcHJlc2VydmVBc3BlY3RSYXRpbz0ibm9uZSIgc3R5bGU9IndpZHRoOjkwMXB4O2hlaWdodDo3NTdweDtiYWNrZ3JvdW5kOiNGRkZGRkY7IiB2ZXJzaW9uPSIxLjEiIHZpZXdCb3g9IjAgMCA5MDEgNzU3IiB3aWR0aD0iOTAxcHgiIHpvb21BbmRQYW49Im1hZ25pZnkiPjxkZWZzLz48Zz48IS0tY2xhc3MgVXNlci0tPjxnIGlkPSJlbGVtX1VzZXIiPjxyZWN0IGNvZGVMaW5lPSIxIiBmaWxsPSIjRjFGMUYxIiBoZWlnaHQ9IjE5Ny44NDM4IiBpZD0iVXNlciIgcng9IjIuNSIgcnk9IjIuNSIgc3R5bGU9InN0cm9rZTojMTgxODE4O3N0cm9rZS13aWR0aDowLjU7IiB3aWR0aD0iMTM0IiB4PSIzNzUuNSIgeT0iNyIvPjxlbGxpcHNlIGN4PSI0MjQuMjUiIGN5PSIyMyIgZmlsbD0iI0FERDFCMiIgcng9IjExIiByeT0iMTEiIHN0eWxlPSJzdHJva2U6IzE4MTgxODtzdHJva2Utd2lkdGg6MS4wOyIvPjxwYXRoIGQ9Ik00MjEuODc1LDI3LjI1IEw0MjEuODc1LDI5IEw0MjYuODEyNSwyOSBMNDI2LjgxMjUsMjcuMjUgTDQyMS44NzUsMjcuMjUgWiBNNDIyLjU2MjUsMjcuOTM3NSBRNDIyLjU2MjUsMjcuOTM3NSA0MjIuNTYyNSwxOC43NSBMNDIwLjgxMjUsMTguNzUgUTQyMC44MTI1LDE4Ljc1IDQyMC44MTI1LDI3LjkzNzUgTDQyMi41NjI1LDI3LjkzNzUgWiBNNDI2LjEyNSwyNy45Mzc1IEw0MjcuODc1LDI3LjkzNzUgUTQyNy44NzUsMjcuOTM3NSA0MjcuODc1LDI1LjEyNSBMNDI2LjEyNSwyNS4xMjUgUTQyNi4xMjUsMjUuMTI1IDQyNi4xMjUsMjcuOTM3NSBaIE00MjYuMTI1LDE4Ljc1IFE0MjYuMTI1LDE4Ljc1IDQyNi4xMjUsMjEuNTYyNSBMNDI3Ljg3NSwyMS41NjI1IFE0MjcuODc1LDIxLjU2MjUgNDI3Ljg3NSwxOC43NSBMNDI2LjEyNSwxOC43NSBaIE00MjEuODc1LDE5LjQzNzUgTDQyNi44MTI1LDE5LjQzNzUgTDQyNi44MTI1LDE3LjY4NzUgTDQyMS44NzUsMTcuNjg3NSBMNDIxLjg3NSwxOS40Mzc1IFogIiBmaWxsPSIjMDAwMDAwIi8+PHRleHQgZmlsbD0iIzAwMDAwMCIgZm9udC1mYW1pbHk9InNhbnMtc2VyaWYiIGZvbnQtc2l6ZT0iMTQiIGxlbmd0aEFkanVzdD0ic3BhY2luZyIgdGV4dExlbmd0aD0iMjgiIHg9IjQ0NC43NSIgeT0iMjguNzQyMiI+VXNlcjwvdGV4dD48bGluZSBzdHlsZT0ic3Ryb2tlOiMxODE4MTg7c3Ryb2tlLXdpZHRoOjAuNTsiIHgxPSIzNzYuNSIgeDI9IjUwOC41IiB5MT0iMzkiIHkyPSIzOSIvPjxlbGxpcHNlIGN4PSIzODYuNSIgY3k9IjUxLjk5MjIiIGZpbGw9Im5vbmUiIHJ4PSIzIiByeT0iMyIgc3R5bGU9InN0cm9rZTojMDM4MDQ4O3N0cm9rZS13aWR0aDoxLjA7Ii8+PHRleHQgZmlsbD0iIzAwMDAwMCIgZm9udC1mYW1pbHk9InNhbnMtc2VyaWYiIGZvbnQtc2l6ZT0iMTQiIGxlbmd0aEFkanVzdD0ic3BhY2luZyIgdGV4dExlbmd0aD0iNDIiIHg9IjM5NS41IiB5PSI1Ni4yMzQ0Ij51c2VySWQ8L3RleHQ+PGVsbGlwc2UgY3g9IjM4Ni41IiBjeT0iNjYuOTc2NiIgZmlsbD0ibm9uZSIgcng9IjMiIHJ5PSIzIiBzdHlsZT0ic3Ryb2tlOiMwMzgwNDg7c3Ryb2tlLXdpZHRoOjEuMDsiLz48dGV4dCBmaWxsPSIjMDAwMDAwIiBmb250LWZhbWlseT0ic2Fucy1zZXJpZiIgZm9udC1zaXplPSIxNCIgbGVuZ3RoQWRqdXN0PSJzcGFjaW5nIiB0ZXh0TGVuZ3RoPSI1NyIgeD0iMzk1LjUiIHk9IjcxLjIxODgiPnVzZXJOYW1lPC90ZXh0PjxlbGxpcHNlIGN4PSIzODYuNSIgY3k9IjgxLjk2MDkiIGZpbGw9Im5vbmUiIHJ4PSIzIiByeT0iMyIgc3R5bGU9InN0cm9rZTojMDM4MDQ4O3N0cm9rZS13aWR0aDoxLjA7Ii8+PHRleHQgZmlsbD0iIzAwMDAwMCIgZm9udC1mYW1pbHk9InNhbnMtc2VyaWYiIGZvbnQtc2l6ZT0iMTQiIGxlbmd0aEFkanVzdD0ic3BhY2luZyIgdGV4dExlbmd0aD0iNjQiIHg9IjM5NS41IiB5PSI4Ni4yMDMxIj51c2VyRW1haWw8L3RleHQ+PGVsbGlwc2UgY3g9IjM4Ni41IiBjeT0iOTYuOTQ1MyIgZmlsbD0ibm9uZSIgcng9IjMiIHJ5PSIzIiBzdHlsZT0ic3Ryb2tlOiMwMzgwNDg7c3Ryb2tlLXdpZHRoOjEuMDsiLz48dGV4dCBmaWxsPSIjMDAwMDAwIiBmb250LWZhbWlseT0ic2Fucy1zZXJpZiIgZm9udC1zaXplPSIxNCIgbGVuZ3RoQWRqdXN0PSJzcGFjaW5nIiB0ZXh0TGVuZ3RoPSI2MyIgeD0iMzk1LjUiIHk9IjEwMS4xODc1Ij51c2VyUGhvbmU8L3RleHQ+PGVsbGlwc2UgY3g9IjM4Ni41IiBjeT0iMTExLjkyOTciIGZpbGw9Im5vbmUiIHJ4PSIzIiByeT0iMyIgc3R5bGU9InN0cm9rZTojMDM4MDQ4O3N0cm9rZS13aWR0aDoxLjA7Ii8+PHRleHQgZmlsbD0iIzAwMDAwMCIgZm9udC1mYW1pbHk9InNhbnMtc2VyaWYiIGZvbnQtc2l6ZT0iMTQiIGxlbmd0aEFkanVzdD0ic3BhY2luZyIgdGV4dExlbmd0aD0iODUiIHg9IjM5NS41IiB5PSIxMTYuMTcxOSI+dXNlclBhc3N3b3JkPC90ZXh0PjxlbGxpcHNlIGN4PSIzODYuNSIgY3k9IjEyNi45MTQxIiBmaWxsPSJub25lIiByeD0iMyIgcnk9IjMiIHN0eWxlPSJzdHJva2U6IzAzODA0ODtzdHJva2Utd2lkdGg6MS4wOyIvPjx0ZXh0IGZpbGw9IiMwMDAwMDAiIGZvbnQtZmFtaWx5PSJzYW5zLXNlcmlmIiBmb250LXNpemU9IjE0IiBsZW5ndGhBZGp1c3Q9InNwYWNpbmciIHRleHRMZW5ndGg9IjcwIiB4PSIzOTUuNSIgeT0iMTMxLjE1NjMiPnVzZXJHZW5kZXI8L3RleHQ+PGVsbGlwc2UgY3g9IjM4Ni41IiBjeT0iMTQxLjg5ODQiIGZpbGw9Im5vbmUiIHJ4PSIzIiByeT0iMyIgc3R5bGU9InN0cm9rZTojMDM4MDQ4O3N0cm9rZS13aWR0aDoxLjA7Ii8+PHRleHQgZmlsbD0iIzAwMDAwMCIgZm9udC1mYW1pbHk9InNhbnMtc2VyaWYiIGZvbnQtc2l6ZT0iMTQiIGxlbmd0aEFkanVzdD0ic3BhY2luZyIgdGV4dExlbmd0aD0iNTYiIHg9IjM5NS41IiB5PSIxNDYuMTQwNiI+dXNlclJvbGU8L3RleHQ+PGVsbGlwc2UgY3g9IjM4Ni41IiBjeT0iMTU2Ljg4MjgiIGZpbGw9Im5vbmUiIHJ4PSIzIiByeT0iMyIgc3R5bGU9InN0cm9rZTojMDM4MDQ4O3N0cm9rZS13aWR0aDoxLjA7Ii8+PHRleHQgZmlsbD0iIzAwMDAwMCIgZm9udC1mYW1pbHk9InNhbnMtc2VyaWYiIGZvbnQtc2l6ZT0iMTQiIGxlbmd0aEFkanVzdD0ic3BhY2luZyIgdGV4dExlbmd0aD0iNzciIHg9IjM5NS41IiB5PSIxNjEuMTI1Ij51c2VyRGV0YWlsczwvdGV4dD48bGluZSBzdHlsZT0ic3Ryb2tlOiMxODE4MTg7c3Ryb2tlLXdpZHRoOjAuNTsiIHgxPSIzNzYuNSIgeDI9IjUwOC41IiB5MT0iMTY2Ljg3NSIgeTI9IjE2Ni44NzUiLz48ZWxsaXBzZSBjeD0iMzg2LjUiIGN5PSIxNzkuODY3MiIgZmlsbD0iIzg0QkU4NCIgcng9IjMiIHJ5PSIzIiBzdHlsZT0ic3Ryb2tlOiMwMzgwNDg7c3Ryb2tlLXdpZHRoOjEuMDsiLz48dGV4dCBmaWxsPSIjMDAwMDAwIiBmb250LWZhbWlseT0ic2Fucy1zZXJpZiIgZm9udC1zaXplPSIxNCIgbGVuZ3RoQWRqdXN0PSJzcGFjaW5nIiB0ZXh0TGVuZ3RoPSIxMDgiIHg9IjM5NS41IiB5PSIxODQuMTA5NCI+Y3JlYXRlTmV3VXNlcigpPC90ZXh0PjxlbGxpcHNlIGN4PSIzODYuNSIgY3k9IjE5NC44NTE2IiBmaWxsPSIjODRCRTg0IiByeD0iMyIgcnk9IjMiIHN0eWxlPSJzdHJva2U6IzAzODA0ODtzdHJva2Utd2lkdGg6MS4wOyIvPjx0ZXh0IGZpbGw9IiMwMDAwMDAiIGZvbnQtZmFtaWx5PSJzYW5zLXNlcmlmIiBmb250LXNpemU9IjE0IiBsZW5ndGhBZGp1c3Q9InNwYWNpbmciIHRleHRMZW5ndGg9Ijg3IiB4PSIzOTUuNSIgeT0iMTk5LjA5MzgiPm1vZGlmeVVzZXIoKTwvdGV4dD48L2c+PCEtLWNsYXNzIENhci0tPjxnIGlkPSJlbGVtX0NhciI+PHJlY3QgY29kZUxpbmU9IjE0IiBmaWxsPSIjRjFGMUYxIiBoZWlnaHQ9IjE2Ny44NzUiIGlkPSJDYXIiIHJ4PSIyLjUiIHJ5PSIyLjUiIHN0eWxlPSJzdHJva2U6IzE4MTgxODtzdHJva2Utd2lkdGg6MC41OyIgd2lkdGg9IjE0NyIgeD0iNyIgeT0iNTYwLjUiLz48ZWxsaXBzZSBjeD0iNjUuNzUiIGN5PSI1NzYuNSIgZmlsbD0iI0FERDFCMiIgcng9IjExIiByeT0iMTEiIHN0eWxlPSJzdHJva2U6IzE4MTgxODtzdHJva2Utd2lkdGg6MS4wOyIvPjxwYXRoIGQ9Ik02My4zNzUsNTgwLjc1IEw2My4zNzUsNTgyLjUgTDY4LjMxMjUsNTgyLjUgTDY4LjMxMjUsNTgwLjc1IEw2My4zNzUsNTgwLjc1IFogTTY0LjA2MjUsNTgxLjQzNzUgUTY0LjA2MjUsNTgxLjQzNzUgNjQuMDYyNSw1NzIuMjUgTDYyLjMxMjUsNTcyLjI1IFE2Mi4zMTI1LDU3Mi4yNSA2Mi4zMTI1LDU4MS40Mzc1IEw2NC4wNjI1LDU4MS40Mzc1IFogTTY3LjYyNSw1ODEuNDM3NSBMNjkuMzc1LDU4MS40Mzc1IFE2OS4zNzUsNTgxLjQzNzUgNjkuMzc1LDU3OC42MjUgTDY3LjYyNSw1NzguNjI1IFE2Ny42MjUsNTc4LjYyNSA2Ny42MjUsNTgxLjQzNzUgWiBNNjcuNjI1LDU3Mi4yNSBRNjcuNjI1LDU3Mi4yNSA2Ny42MjUsNTc1LjA2MjUgTDY5LjM3NSw1NzUuMDYyNSBRNjkuMzc1LDU3NS4wNjI1IDY5LjM3NSw1NzIuMjUgTDY3LjYyNSw1NzIuMjUgWiBNNjMuMzc1LDU3Mi45Mzc1IEw2OC4zMTI1LDU3Mi45Mzc1IEw2OC4zMTI1LDU3MS4xODc1IEw2My4zNzUsNTcxLjE4NzUgTDYzLjM3NSw1NzIuOTM3NSBaICIgZmlsbD0iIzAwMDAwMCIvPjx0ZXh0IGZpbGw9IiMwMDAwMDAiIGZvbnQtZmFtaWx5PSJzYW5zLXNlcmlmIiBmb250LXNpemU9IjE0IiBsZW5ndGhBZGp1c3Q9InNwYWNpbmciIHRleHRMZW5ndGg9IjIxIiB4PSI4Ni4yNSIgeT0iNTgyLjI0MjIiPkNhcjwvdGV4dD48bGluZSBzdHlsZT0ic3Ryb2tlOiMxODE4MTg7c3Ryb2tlLXdpZHRoOjAuNTsiIHgxPSI4IiB4Mj0iMTUzIiB5MT0iNTkyLjUiIHkyPSI1OTIuNSIvPjxlbGxpcHNlIGN4PSIxOCIgY3k9IjYwNS40OTIyIiBmaWxsPSJub25lIiByeD0iMyIgcnk9IjMiIHN0eWxlPSJzdHJva2U6IzAzODA0ODtzdHJva2Utd2lkdGg6MS4wOyIvPjx0ZXh0IGZpbGw9IiMwMDAwMDAiIGZvbnQtZmFtaWx5PSJzYW5zLXNlcmlmIiBmb250LXNpemU9IjE0IiBsZW5ndGhBZGp1c3Q9InNwYWNpbmciIHRleHRMZW5ndGg9IjM1IiB4PSIyNyIgeT0iNjA5LjczNDQiPmNhcklkPC90ZXh0PjxlbGxpcHNlIGN4PSIxOCIgY3k9IjYyMC40NzY2IiBmaWxsPSJub25lIiByeD0iMyIgcnk9IjMiIHN0eWxlPSJzdHJva2U6IzAzODA0ODtzdHJva2Utd2lkdGg6MS4wOyIvPjx0ZXh0IGZpbGw9IiMwMDAwMDAiIGZvbnQtZmFtaWx5PSJzYW5zLXNlcmlmIiBmb250LXNpemU9IjE0IiBsZW5ndGhBZGp1c3Q9InNwYWNpbmciIHRleHRMZW5ndGg9IjcwIiB4PSIyNyIgeT0iNjI0LjcxODgiPmNhclVzZXJSZWY8L3RleHQ+PGVsbGlwc2UgY3g9IjE4IiBjeT0iNjM1LjQ2MDkiIGZpbGw9Im5vbmUiIHJ4PSIzIiByeT0iMyIgc3R5bGU9InN0cm9rZTojMDM4MDQ4O3N0cm9rZS13aWR0aDoxLjA7Ii8+PHRleHQgZmlsbD0iIzAwMDAwMCIgZm9udC1mYW1pbHk9InNhbnMtc2VyaWYiIGZvbnQtc2l6ZT0iMTQiIGxlbmd0aEFkanVzdD0ic3BhY2luZyIgdGV4dExlbmd0aD0iNTYiIHg9IjI3IiB5PSI2MzkuNzAzMSI+Y2FyTW9kZWw8L3RleHQ+PGVsbGlwc2UgY3g9IjE4IiBjeT0iNjUwLjQ0NTMiIGZpbGw9Im5vbmUiIHJ4PSIzIiByeT0iMyIgc3R5bGU9InN0cm9rZTojMDM4MDQ4O3N0cm9rZS13aWR0aDoxLjA7Ii8+PHRleHQgZmlsbD0iIzAwMDAwMCIgZm9udC1mYW1pbHk9InNhbnMtc2VyaWYiIGZvbnQtc2l6ZT0iMTQiIGxlbmd0aEFkanVzdD0ic3BhY2luZyIgdGV4dExlbmd0aD0iNzAiIHg9IjI3IiB5PSI2NTQuNjg3NSI+Y2FyVGllclJlZjwvdGV4dD48ZWxsaXBzZSBjeD0iMTgiIGN5PSI2NjUuNDI5NyIgZmlsbD0ibm9uZSIgcng9IjMiIHJ5PSIzIiBzdHlsZT0ic3Ryb2tlOiMwMzgwNDg7c3Ryb2tlLXdpZHRoOjEuMDsiLz48dGV4dCBmaWxsPSIjMDAwMDAwIiBmb250LWZhbWlseT0ic2Fucy1zZXJpZiIgZm9udC1zaXplPSIxNCIgbGVuZ3RoQWRqdXN0PSJzcGFjaW5nIiB0ZXh0TGVuZ3RoPSI3NyIgeD0iMjciIHk9IjY2OS42NzE5Ij5jYXJMb2NhdGlvbjwvdGV4dD48bGluZSBzdHlsZT0ic3Ryb2tlOiMxODE4MTg7c3Ryb2tlLXdpZHRoOjAuNTsiIHgxPSI4IiB4Mj0iMTUzIiB5MT0iNjc1LjQyMTkiIHkyPSI2NzUuNDIxOSIvPjxlbGxpcHNlIGN4PSIxOCIgY3k9IjY4OC40MTQxIiBmaWxsPSIjODRCRTg0IiByeD0iMyIgcnk9IjMiIHN0eWxlPSJzdHJva2U6IzAzODA0ODtzdHJva2Utd2lkdGg6MS4wOyIvPjx0ZXh0IGZpbGw9IiMwMDAwMDAiIGZvbnQtZmFtaWx5PSJzYW5zLXNlcmlmIiBmb250LXNpemU9IjE0IiBsZW5ndGhBZGp1c3Q9InNwYWNpbmciIHRleHRMZW5ndGg9IjgwIiB4PSIyNyIgeT0iNjkyLjY1NjMiPm1vZGlmeUNhcigpPC90ZXh0PjxlbGxpcHNlIGN4PSIxOCIgY3k9IjcwMy4zOTg0IiBmaWxsPSIjODRCRTg0IiByeD0iMyIgcnk9IjMiIHN0eWxlPSJzdHJva2U6IzAzODA0ODtzdHJva2Utd2lkdGg6MS4wOyIvPjx0ZXh0IGZpbGw9IiMwMDAwMDAiIGZvbnQtZmFtaWx5PSJzYW5zLXNlcmlmIiBmb250LXNpemU9IjE0IiBsZW5ndGhBZGp1c3Q9InNwYWNpbmciIHRleHRMZW5ndGg9IjEwMSIgeD0iMjciIHk9IjcwNy42NDA2Ij5jcmVhdGVOZXdDYXIoKTwvdGV4dD48ZWxsaXBzZSBjeD0iMTgiIGN5PSI3MTguMzgyOCIgZmlsbD0iIzg0QkU4NCIgcng9IjMiIHJ5PSIzIiBzdHlsZT0ic3Ryb2tlOiMwMzgwNDg7c3Ryb2tlLXdpZHRoOjEuMDsiLz48dGV4dCBmaWxsPSIjMDAwMDAwIiBmb250LWZhbWlseT0ic2Fucy1zZXJpZiIgZm9udC1zaXplPSIxNCIgbGVuZ3RoQWRqdXN0PSJzcGFjaW5nIiB0ZXh0TGVuZ3RoPSIxMjEiIHg9IjI3IiB5PSI3MjIuNjI1Ij5yZWZyZXNoTG9jYXRpb24oKTwvdGV4dD48L2c+PCEtLWNsYXNzIEJvb2tpbmctLT48ZyBpZD0iZWxlbV9Cb29raW5nIj48cmVjdCBjb2RlTGluZT0iMjUiIGZpbGw9IiNGMUYxRjEiIGhlaWdodD0iMjEyLjgyODEiIGlkPSJCb29raW5nIiByeD0iMi41IiByeT0iMi41IiBzdHlsZT0ic3Ryb2tlOiMxODE4MTg7c3Ryb2tlLXdpZHRoOjAuNTsiIHdpZHRoPSIxNTMiIHg9IjM2NiIgeT0iMjY1Ii8+PGVsbGlwc2UgY3g9IjQxMy43NSIgY3k9IjI4MSIgZmlsbD0iI0FERDFCMiIgcng9IjExIiByeT0iMTEiIHN0eWxlPSJzdHJva2U6IzE4MTgxODtzdHJva2Utd2lkdGg6MS4wOyIvPjxwYXRoIGQ9Ik00MTEuMzc1LDI4NS4yNSBMNDExLjM3NSwyODcgTDQxNi4zMTI1LDI4NyBMNDE2LjMxMjUsMjg1LjI1IEw0MTEuMzc1LDI4NS4yNSBaIE00MTIuMDYyNSwyODUuOTM3NSBRNDEyLjA2MjUsMjg1LjkzNzUgNDEyLjA2MjUsMjc2Ljc1IEw0MTAuMzEyNSwyNzYuNzUgUTQxMC4zMTI1LDI3Ni43NSA0MTAuMzEyNSwyODUuOTM3NSBMNDEyLjA2MjUsMjg1LjkzNzUgWiBNNDE1LjYyNSwyODUuOTM3NSBMNDE3LjM3NSwyODUuOTM3NSBRNDE3LjM3NSwyODUuOTM3NSA0MTcuMzc1LDI4My4xMjUgTDQxNS42MjUsMjgzLjEyNSBRNDE1LjYyNSwyODMuMTI1IDQxNS42MjUsMjg1LjkzNzUgWiBNNDE1LjYyNSwyNzYuNzUgUTQxNS42MjUsMjc2Ljc1IDQxNS42MjUsMjc5LjU2MjUgTDQxNy4zNzUsMjc5LjU2MjUgUTQxNy4zNzUsMjc5LjU2MjUgNDE3LjM3NSwyNzYuNzUgTDQxNS42MjUsMjc2Ljc1IFogTTQxMS4zNzUsMjc3LjQzNzUgTDQxNi4zMTI1LDI3Ny40Mzc1IEw0MTYuMzEyNSwyNzUuNjg3NSBMNDExLjM3NSwyNzUuNjg3NSBMNDExLjM3NSwyNzcuNDM3NSBaICIgZmlsbD0iIzAwMDAwMCIvPjx0ZXh0IGZpbGw9IiMwMDAwMDAiIGZvbnQtZmFtaWx5PSJzYW5zLXNlcmlmIiBmb250LXNpemU9IjE0IiBsZW5ndGhBZGp1c3Q9InNwYWNpbmciIHRleHRMZW5ndGg9IjQ5IiB4PSI0MzQuMjUiIHk9IjI4Ni43NDIyIj5Cb29raW5nPC90ZXh0PjxsaW5lIHN0eWxlPSJzdHJva2U6IzE4MTgxODtzdHJva2Utd2lkdGg6MC41OyIgeDE9IjM2NyIgeDI9IjUxOCIgeTE9IjI5NyIgeTI9IjI5NyIvPjxlbGxpcHNlIGN4PSIzNzciIGN5PSIzMDkuOTkyMiIgZmlsbD0ibm9uZSIgcng9IjMiIHJ5PSIzIiBzdHlsZT0ic3Ryb2tlOiMwMzgwNDg7c3Ryb2tlLXdpZHRoOjEuMDsiLz48dGV4dCBmaWxsPSIjMDAwMDAwIiBmb250LWZhbWlseT0ic2Fucy1zZXJpZiIgZm9udC1zaXplPSIxNCIgbGVuZ3RoQWRqdXN0PSJzcGFjaW5nIiB0ZXh0TGVuZ3RoPSI2MyIgeD0iMzg2IiB5PSIzMTQuMjM0NCI+Ym9va2luZ0lkPC90ZXh0PjxlbGxpcHNlIGN4PSIzNzciIGN5PSIzMjQuOTc2NiIgZmlsbD0ibm9uZSIgcng9IjMiIHJ5PSIzIiBzdHlsZT0ic3Ryb2tlOiMwMzgwNDg7c3Ryb2tlLXdpZHRoOjEuMDsiLz48dGV4dCBmaWxsPSIjMDAwMDAwIiBmb250LWZhbWlseT0ic2Fucy1zZXJpZiIgZm9udC1zaXplPSIxNCIgbGVuZ3RoQWRqdXN0PSJzcGFjaW5nIiB0ZXh0TGVuZ3RoPSIxMTIiIHg9IjM4NiIgeT0iMzI5LjIxODgiPmJvb2tpbmdEcml2ZXJSZWY8L3RleHQ+PGVsbGlwc2UgY3g9IjM3NyIgY3k9IjMzOS45NjA5IiBmaWxsPSJub25lIiByeD0iMyIgcnk9IjMiIHN0eWxlPSJzdHJva2U6IzAzODA0ODtzdHJva2Utd2lkdGg6MS4wOyIvPjx0ZXh0IGZpbGw9IiMwMDAwMDAiIGZvbnQtZmFtaWx5PSJzYW5zLXNlcmlmIiBmb250LXNpemU9IjE0IiBsZW5ndGhBZGp1c3Q9InNwYWNpbmciIHRleHRMZW5ndGg9IjEyNyIgeD0iMzg2IiB5PSIzNDQuMjAzMSI+Ym9va2luZ0N1c3RvbWVyUmVmPC90ZXh0PjxlbGxpcHNlIGN4PSIzNzciIGN5PSIzNTQuOTQ1MyIgZmlsbD0ibm9uZSIgcng9IjMiIHJ5PSIzIiBzdHlsZT0ic3Ryb2tlOiMwMzgwNDg7c3Ryb2tlLXdpZHRoOjEuMDsiLz48dGV4dCBmaWxsPSIjMDAwMDAwIiBmb250LWZhbWlseT0ic2Fucy1zZXJpZiIgZm9udC1zaXplPSIxNCIgbGVuZ3RoQWRqdXN0PSJzcGFjaW5nIiB0ZXh0TGVuZ3RoPSI3OCIgeD0iMzg2IiB5PSIzNTkuMTg3NSI+Ym9va2luZ1RpbWU8L3RleHQ+PGVsbGlwc2UgY3g9IjM3NyIgY3k9IjM2OS45Mjk3IiBmaWxsPSJub25lIiByeD0iMyIgcnk9IjMiIHN0eWxlPSJzdHJva2U6IzAzODA0ODtzdHJva2Utd2lkdGg6MS4wOyIvPjx0ZXh0IGZpbGw9IiMwMDAwMDAiIGZvbnQtZmFtaWx5PSJzYW5zLXNlcmlmIiBmb250LXNpemU9IjE0IiBsZW5ndGhBZGp1c3Q9InNwYWNpbmciIHRleHRMZW5ndGg9IjEwNSIgeD0iMzg2IiB5PSIzNzQuMTcxOSI+Ym9va2luZ0R1cmF0aW9uPC90ZXh0PjxlbGxpcHNlIGN4PSIzNzciIGN5PSIzODQuOTE0MSIgZmlsbD0ibm9uZSIgcng9IjMiIHJ5PSIzIiBzdHlsZT0ic3Ryb2tlOiMwMzgwNDg7c3Ryb2tlLXdpZHRoOjEuMDsiLz48dGV4dCBmaWxsPSIjMDAwMDAwIiBmb250LWZhbWlseT0ic2Fucy1zZXJpZiIgZm9udC1zaXplPSIxNCIgbGVuZ3RoQWRqdXN0PSJzcGFjaW5nIiB0ZXh0TGVuZ3RoPSI5MSIgeD0iMzg2IiB5PSIzODkuMTU2MyI+Ym9va2luZ1N0YXR1czwvdGV4dD48ZWxsaXBzZSBjeD0iMzc3IiBjeT0iMzk5Ljg5ODQiIGZpbGw9Im5vbmUiIHJ4PSIzIiByeT0iMyIgc3R5bGU9InN0cm9rZTojMDM4MDQ4O3N0cm9rZS13aWR0aDoxLjA7Ii8+PHRleHQgZmlsbD0iIzAwMDAwMCIgZm9udC1mYW1pbHk9InNhbnMtc2VyaWYiIGZvbnQtc2l6ZT0iMTQiIGxlbmd0aEFkanVzdD0ic3BhY2luZyIgdGV4dExlbmd0aD0iMTE5IiB4PSIzODYiIHk9IjQwNC4xNDA2Ij5ib29raW5nU3RhcnRQb2ludDwvdGV4dD48ZWxsaXBzZSBjeD0iMzc3IiBjeT0iNDE0Ljg4MjgiIGZpbGw9Im5vbmUiIHJ4PSIzIiByeT0iMyIgc3R5bGU9InN0cm9rZTojMDM4MDQ4O3N0cm9rZS13aWR0aDoxLjA7Ii8+PHRleHQgZmlsbD0iIzAwMDAwMCIgZm9udC1mYW1pbHk9InNhbnMtc2VyaWYiIGZvbnQtc2l6ZT0iMTQiIGxlbmd0aEFkanVzdD0ic3BhY2luZyIgdGV4dExlbmd0aD0iMTA1IiB4PSIzODYiIHk9IjQxOS4xMjUiPmJvb2tpbmdFbmRQb2ludDwvdGV4dD48bGluZSBzdHlsZT0ic3Ryb2tlOiMxODE4MTg7c3Ryb2tlLXdpZHRoOjAuNTsiIHgxPSIzNjciIHgyPSI1MTgiIHkxPSI0MjQuODc1IiB5Mj0iNDI0Ljg3NSIvPjxlbGxpcHNlIGN4PSIzNzciIGN5PSI0MzcuODY3MiIgZmlsbD0iIzg0QkU4NCIgcng9IjMiIHJ5PSIzIiBzdHlsZT0ic3Ryb2tlOiMwMzgwNDg7c3Ryb2tlLXdpZHRoOjEuMDsiLz48dGV4dCBmaWxsPSIjMDAwMDAwIiBmb250LWZhbWlseT0ic2Fucy1zZXJpZiIgZm9udC1zaXplPSIxNCIgbGVuZ3RoQWRqdXN0PSJzcGFjaW5nIiB0ZXh0TGVuZ3RoPSIxMDciIHg9IjM4NiIgeT0iNDQyLjEwOTQiPmNyZWF0ZUJvb2tpbmcoKTwvdGV4dD48ZWxsaXBzZSBjeD0iMzc3IiBjeT0iNDUyLjg1MTYiIGZpbGw9IiM4NEJFODQiIHJ4PSIzIiByeT0iMyIgc3R5bGU9InN0cm9rZTojMDM4MDQ4O3N0cm9rZS13aWR0aDoxLjA7Ii8+PHRleHQgZmlsbD0iIzAwMDAwMCIgZm9udC1mYW1pbHk9InNhbnMtc2VyaWYiIGZvbnQtc2l6ZT0iMTQiIGxlbmd0aEFkanVzdD0ic3BhY2luZyIgdGV4dExlbmd0aD0iMTAwIiB4PSIzODYiIHk9IjQ1Ny4wOTM4Ij51cGRhdGVTdGF0dXMoKTwvdGV4dD48ZWxsaXBzZSBjeD0iMzc3IiBjeT0iNDY3LjgzNTkiIGZpbGw9IiM4NEJFODQiIHJ4PSIzIiByeT0iMyIgc3R5bGU9InN0cm9rZTojMDM4MDQ4O3N0cm9rZS13aWR0aDoxLjA7Ii8+PHRleHQgZmlsbD0iIzAwMDAwMCIgZm9udC1mYW1pbHk9InNhbnMtc2VyaWYiIGZvbnQtc2l6ZT0iMTQiIGxlbmd0aEFkanVzdD0ic3BhY2luZyIgdGV4dExlbmd0aD0iODciIHg9IjM4NiIgeT0iNDcyLjA3ODEiPm1vZGlmeVVzZXIoKTwvdGV4dD48L2c+PCEtLWNsYXNzIFRpZXItLT48ZyBpZD0iZWxlbV9UaWVyIj48cmVjdCBjb2RlTGluZT0iMzkiIGZpbGw9IiNGMUYxRjEiIGhlaWdodD0iMTM3LjkwNjMiIGlkPSJUaWVyIiByeD0iMi41IiByeT0iMi41IiBzdHlsZT0ic3Ryb2tlOiMxODE4MTg7c3Ryb2tlLXdpZHRoOjAuNTsiIHdpZHRoPSIxMzQiIHg9IjE4OS41IiB5PSI1NzUuNSIvPjxlbGxpcHNlIGN4PSIyMzguMjUiIGN5PSI1OTEuNSIgZmlsbD0iI0FERDFCMiIgcng9IjExIiByeT0iMTEiIHN0eWxlPSJzdHJva2U6IzE4MTgxODtzdHJva2Utd2lkdGg6MS4wOyIvPjxwYXRoIGQ9Ik0yMzUuODc1LDU5NS43NSBMMjM1Ljg3NSw1OTcuNSBMMjQwLjgxMjUsNTk3LjUgTDI0MC44MTI1LDU5NS43NSBMMjM1Ljg3NSw1OTUuNzUgWiBNMjM2LjU2MjUsNTk2LjQzNzUgUTIzNi41NjI1LDU5Ni40Mzc1IDIzNi41NjI1LDU4Ny4yNSBMMjM0LjgxMjUsNTg3LjI1IFEyMzQuODEyNSw1ODcuMjUgMjM0LjgxMjUsNTk2LjQzNzUgTDIzNi41NjI1LDU5Ni40Mzc1IFogTTI0MC4xMjUsNTk2LjQzNzUgTDI0MS44NzUsNTk2LjQzNzUgUTI0MS44NzUsNTk2LjQzNzUgMjQxLjg3NSw1OTMuNjI1IEwyNDAuMTI1LDU5My42MjUgUTI0MC4xMjUsNTkzLjYyNSAyNDAuMTI1LDU5Ni40Mzc1IFogTTI0MC4xMjUsNTg3LjI1IFEyNDAuMTI1LDU4Ny4yNSAyNDAuMTI1LDU5MC4wNjI1IEwyNDEuODc1LDU5MC4wNjI1IFEyNDEuODc1LDU5MC4wNjI1IDI0MS44NzUsNTg3LjI1IEwyNDAuMTI1LDU4Ny4yNSBaIE0yMzUuODc1LDU4Ny45Mzc1IEwyNDAuODEyNSw1ODcuOTM3NSBMMjQwLjgxMjUsNTg2LjE4NzUgTDIzNS44NzUsNTg2LjE4NzUgTDIzNS44NzUsNTg3LjkzNzUgWiAiIGZpbGw9IiMwMDAwMDAiLz48dGV4dCBmaWxsPSIjMDAwMDAwIiBmb250LWZhbWlseT0ic2Fucy1zZXJpZiIgZm9udC1zaXplPSIxNCIgbGVuZ3RoQWRqdXN0PSJzcGFjaW5nIiB0ZXh0TGVuZ3RoPSIyOCIgeD0iMjU4Ljc1IiB5PSI1OTcuMjQyMiI+VGllcjwvdGV4dD48bGluZSBzdHlsZT0ic3Ryb2tlOiMxODE4MTg7c3Ryb2tlLXdpZHRoOjAuNTsiIHgxPSIxOTAuNSIgeDI9IjMyMi41IiB5MT0iNjA3LjUiIHkyPSI2MDcuNSIvPjxlbGxpcHNlIGN4PSIyMDAuNSIgY3k9IjYyMC40OTIyIiBmaWxsPSJub25lIiByeD0iMyIgcnk9IjMiIHN0eWxlPSJzdHJva2U6IzAzODA0ODtzdHJva2Utd2lkdGg6MS4wOyIvPjx0ZXh0IGZpbGw9IiMwMDAwMDAiIGZvbnQtZmFtaWx5PSJzYW5zLXNlcmlmIiBmb250LXNpemU9IjE0IiBsZW5ndGhBZGp1c3Q9InNwYWNpbmciIHRleHRMZW5ndGg9IjQyIiB4PSIyMDkuNSIgeT0iNjI0LjczNDQiPnRpZXJJZDwvdGV4dD48ZWxsaXBzZSBjeD0iMjAwLjUiIGN5PSI2MzUuNDc2NiIgZmlsbD0ibm9uZSIgcng9IjMiIHJ5PSIzIiBzdHlsZT0ic3Ryb2tlOiMwMzgwNDg7c3Ryb2tlLXdpZHRoOjEuMDsiLz48dGV4dCBmaWxsPSIjMDAwMDAwIiBmb250LWZhbWlseT0ic2Fucy1zZXJpZiIgZm9udC1zaXplPSIxNCIgbGVuZ3RoQWRqdXN0PSJzcGFjaW5nIiB0ZXh0TGVuZ3RoPSI1NyIgeD0iMjA5LjUiIHk9IjYzOS43MTg4Ij50aWVyTmFtZTwvdGV4dD48ZWxsaXBzZSBjeD0iMjAwLjUiIGN5PSI2NTAuNDYwOSIgZmlsbD0ibm9uZSIgcng9IjMiIHJ5PSIzIiBzdHlsZT0ic3Ryb2tlOiMwMzgwNDg7c3Ryb2tlLXdpZHRoOjEuMDsiLz48dGV4dCBmaWxsPSIjMDAwMDAwIiBmb250LWZhbWlseT0ic2Fucy1zZXJpZiIgZm9udC1zaXplPSIxNCIgbGVuZ3RoQWRqdXN0PSJzcGFjaW5nIiB0ZXh0TGVuZ3RoPSI2MyIgeD0iMjA5LjUiIHk9IjY1NC43MDMxIj50aWVyUHJpY2U8L3RleHQ+PGVsbGlwc2UgY3g9IjIwMC41IiBjeT0iNjY1LjQ0NTMiIGZpbGw9Im5vbmUiIHJ4PSIzIiByeT0iMyIgc3R5bGU9InN0cm9rZTojMDM4MDQ4O3N0cm9rZS13aWR0aDoxLjA7Ii8+PHRleHQgZmlsbD0iIzAwMDAwMCIgZm9udC1mYW1pbHk9InNhbnMtc2VyaWYiIGZvbnQtc2l6ZT0iMTQiIGxlbmd0aEFkanVzdD0ic3BhY2luZyIgdGV4dExlbmd0aD0iNjMiIHg9IjIwOS41IiB5PSI2NjkuNjg3NSI+dGllck9yZGVyPC90ZXh0PjxsaW5lIHN0eWxlPSJzdHJva2U6IzE4MTgxODtzdHJva2Utd2lkdGg6MC41OyIgeDE9IjE5MC41IiB4Mj0iMzIyLjUiIHkxPSI2NzUuNDM3NSIgeTI9IjY3NS40Mzc1Ii8+PGVsbGlwc2UgY3g9IjIwMC41IiBjeT0iNjg4LjQyOTciIGZpbGw9IiM4NEJFODQiIHJ4PSIzIiByeT0iMyIgc3R5bGU9InN0cm9rZTojMDM4MDQ4O3N0cm9rZS13aWR0aDoxLjA7Ii8+PHRleHQgZmlsbD0iIzAwMDAwMCIgZm9udC1mYW1pbHk9InNhbnMtc2VyaWYiIGZvbnQtc2l6ZT0iMTQiIGxlbmd0aEFkanVzdD0ic3BhY2luZyIgdGV4dExlbmd0aD0iODciIHg9IjIwOS41IiB5PSI2OTIuNjcxOSI+bW9kaWZ5VGllcigpPC90ZXh0PjxlbGxpcHNlIGN4PSIyMDAuNSIgY3k9IjcwMy40MTQxIiBmaWxsPSIjODRCRTg0IiByeD0iMyIgcnk9IjMiIHN0eWxlPSJzdHJva2U6IzAzODA0ODtzdHJva2Utd2lkdGg6MS4wOyIvPjx0ZXh0IGZpbGw9IiMwMDAwMDAiIGZvbnQtZmFtaWx5PSJzYW5zLXNlcmlmIiBmb250LXNpemU9IjE0IiBsZW5ndGhBZGp1c3Q9InNwYWNpbmciIHRleHRMZW5ndGg9IjEwOCIgeD0iMjA5LjUiIHk9IjcwNy42NTYzIj5jcmVhdGVOZXdUaWVyKCk8L3RleHQ+PC9nPjwhLS1jbGFzcyBTZXJ2ZXItLT48ZyBpZD0iZWxlbV9TZXJ2ZXIiPjxyZWN0IGNvZGVMaW5lPSI0OCIgZmlsbD0iI0YxRjFGMSIgaGVpZ2h0PSIyMTIuODI4MSIgaWQ9IlNlcnZlciIgcng9IjIuNSIgcnk9IjIuNSIgc3R5bGU9InN0cm9rZTojMTgxODE4O3N0cm9rZS13aWR0aDowLjU7IiB3aWR0aD0iMTY4IiB4PSIzNTguNSIgeT0iNTM4Ii8+PGVsbGlwc2UgY3g9IjQxNy4yNSIgY3k9IjU1NCIgZmlsbD0iI0FERDFCMiIgcng9IjExIiByeT0iMTEiIHN0eWxlPSJzdHJva2U6IzE4MTgxODtzdHJva2Utd2lkdGg6MS4wOyIvPjxwYXRoIGQ9Ik00MTQuODc1LDU1OC4yNSBMNDE0Ljg3NSw1NjAgTDQxOS44MTI1LDU2MCBMNDE5LjgxMjUsNTU4LjI1IEw0MTQuODc1LDU1OC4yNSBaIE00MTUuNTYyNSw1NTguOTM3NSBRNDE1LjU2MjUsNTU4LjkzNzUgNDE1LjU2MjUsNTQ5Ljc1IEw0MTMuODEyNSw1NDkuNzUgUTQxMy44MTI1LDU0OS43NSA0MTMuODEyNSw1NTguOTM3NSBMNDE1LjU2MjUsNTU4LjkzNzUgWiBNNDE5LjEyNSw1NTguOTM3NSBMNDIwLjg3NSw1NTguOTM3NSBRNDIwLjg3NSw1NTguOTM3NSA0MjAuODc1LDU1Ni4xMjUgTDQxOS4xMjUsNTU2LjEyNSBRNDE5LjEyNSw1NTYuMTI1IDQxOS4xMjUsNTU4LjkzNzUgWiBNNDE5LjEyNSw1NDkuNzUgUTQxOS4xMjUsNTQ5Ljc1IDQxOS4xMjUsNTUyLjU2MjUgTDQyMC44NzUsNTUyLjU2MjUgUTQyMC44NzUsNTUyLjU2MjUgNDIwLjg3NSw1NDkuNzUgTDQxOS4xMjUsNTQ5Ljc1IFogTTQxNC44NzUsNTUwLjQzNzUgTDQxOS44MTI1LDU1MC40Mzc1IEw0MTkuODEyNSw1NDguNjg3NSBMNDE0Ljg3NSw1NDguNjg3NSBMNDE0Ljg3NSw1NTAuNDM3NSBaICIgZmlsbD0iIzAwMDAwMCIvPjx0ZXh0IGZpbGw9IiMwMDAwMDAiIGZvbnQtZmFtaWx5PSJzYW5zLXNlcmlmIiBmb250LXNpemU9IjE0IiBsZW5ndGhBZGp1c3Q9InNwYWNpbmciIHRleHRMZW5ndGg9IjQyIiB4PSI0MzcuNzUiIHk9IjU1OS43NDIyIj5TZXJ2ZXI8L3RleHQ+PGxpbmUgc3R5bGU9InN0cm9rZTojMTgxODE4O3N0cm9rZS13aWR0aDowLjU7IiB4MT0iMzU5LjUiIHgyPSI1MjUuNSIgeTE9IjU3MCIgeTI9IjU3MCIvPjxlbGxpcHNlIGN4PSIzNjkuNSIgY3k9IjU4Mi45OTIyIiBmaWxsPSJub25lIiByeD0iMyIgcnk9IjMiIHN0eWxlPSJzdHJva2U6IzAzODA0ODtzdHJva2Utd2lkdGg6MS4wOyIvPjx0ZXh0IGZpbGw9IiMwMDAwMDAiIGZvbnQtZmFtaWx5PSJzYW5zLXNlcmlmIiBmb250LXNpemU9IjE0IiBsZW5ndGhBZGp1c3Q9InNwYWNpbmciIHRleHRMZW5ndGg9IjU2IiB4PSIzNzguNSIgeT0iNTg3LjIzNDQiPnNlcnZlcklEPC90ZXh0PjxlbGxpcHNlIGN4PSIzNjkuNSIgY3k9IjU5Ny45NzY2IiBmaWxsPSJub25lIiByeD0iMyIgcnk9IjMiIHN0eWxlPSJzdHJva2U6IzAzODA0ODtzdHJva2Utd2lkdGg6MS4wOyIvPjx0ZXh0IGZpbGw9IiMwMDAwMDAiIGZvbnQtZmFtaWx5PSJzYW5zLXNlcmlmIiBmb250LXNpemU9IjE0IiBsZW5ndGhBZGp1c3Q9InNwYWNpbmciIHRleHRMZW5ndGg9Ijg0IiB4PSIzNzguNSIgeT0iNjAyLjIxODgiPnNlcnZlclN0YXR1czwvdGV4dD48ZWxsaXBzZSBjeD0iMzY5LjUiIGN5PSI2MTIuOTYwOSIgZmlsbD0ibm9uZSIgcng9IjMiIHJ5PSIzIiBzdHlsZT0ic3Ryb2tlOiMwMzgwNDg7c3Ryb2tlLXdpZHRoOjEuMDsiLz48dGV4dCBmaWxsPSIjMDAwMDAwIiBmb250LWZhbWlseT0ic2Fucy1zZXJpZiIgZm9udC1zaXplPSIxNCIgbGVuZ3RoQWRqdXN0PSJzcGFjaW5nIiB0ZXh0TGVuZ3RoPSI5OCIgeD0iMzc4LjUiIHk9IjYxNy4yMDMxIj5zZXJ2ZXJMb2NhdGlvbjwvdGV4dD48bGluZSBzdHlsZT0ic3Ryb2tlOiMxODE4MTg7c3Ryb2tlLXdpZHRoOjAuNTsiIHgxPSIzNTkuNSIgeDI9IjUyNS41IiB5MT0iNjIyLjk1MzEiIHkyPSI2MjIuOTUzMSIvPjxlbGxpcHNlIGN4PSIzNjkuNSIgY3k9IjYzNS45NDUzIiBmaWxsPSIjODRCRTg0IiByeD0iMyIgcnk9IjMiIHN0eWxlPSJzdHJva2U6IzAzODA0ODtzdHJva2Utd2lkdGg6MS4wOyIvPjx0ZXh0IGZpbGw9IiMwMDAwMDAiIGZvbnQtZmFtaWx5PSJzYW5zLXNlcmlmIiBmb250LXNpemU9IjE0IiBsZW5ndGhBZGp1c3Q9InNwYWNpbmciIHRleHRMZW5ndGg9IjUxIiB4PSIzNzguNSIgeT0iNjQwLjE4NzUiPmxvZ2luKCk8L3RleHQ+PGVsbGlwc2UgY3g9IjM2OS41IiBjeT0iNjUwLjkyOTciIGZpbGw9IiM4NEJFODQiIHJ4PSIzIiByeT0iMyIgc3R5bGU9InN0cm9rZTojMDM4MDQ4O3N0cm9rZS13aWR0aDoxLjA7Ii8+PHRleHQgZmlsbD0iIzAwMDAwMCIgZm9udC1mYW1pbHk9InNhbnMtc2VyaWYiIGZvbnQtc2l6ZT0iMTQiIGxlbmd0aEFkanVzdD0ic3BhY2luZyIgdGV4dExlbmd0aD0iNzkiIHg9IjM3OC41IiB5PSI2NTUuMTcxOSI+Y2FsY1ByaWNlKCk8L3RleHQ+PGVsbGlwc2UgY3g9IjM2OS41IiBjeT0iNjY1LjkxNDEiIGZpbGw9IiM4NEJFODQiIHJ4PSIzIiByeT0iMyIgc3R5bGU9InN0cm9rZTojMDM4MDQ4O3N0cm9rZS13aWR0aDoxLjA7Ii8+PHRleHQgZmlsbD0iIzAwMDAwMCIgZm9udC1mYW1pbHk9InNhbnMtc2VyaWYiIGZvbnQtc2l6ZT0iMTQiIGxlbmd0aEFkanVzdD0ic3BhY2luZyIgdGV4dExlbmd0aD0iMTA3IiB4PSIzNzguNSIgeT0iNjcwLjE1NjMiPmNyZWF0ZUJvb2tpbmcoKTwvdGV4dD48ZWxsaXBzZSBjeD0iMzY5LjUiIGN5PSI2ODAuODk4NCIgZmlsbD0iIzg0QkU4NCIgcng9IjMiIHJ5PSIzIiBzdHlsZT0ic3Ryb2tlOiMwMzgwNDg7c3Ryb2tlLXdpZHRoOjEuMDsiLz48dGV4dCBmaWxsPSIjMDAwMDAwIiBmb250LWZhbWlseT0ic2Fucy1zZXJpZiIgZm9udC1zaXplPSIxNCIgbGVuZ3RoQWRqdXN0PSJzcGFjaW5nIiB0ZXh0TGVuZ3RoPSIxNDIiIHg9IjM3OC41IiB5PSI2ODUuMTQwNiI+c2VhcmNoQXZhaWxhYmxlQ2FyKCk8L3RleHQ+PGVsbGlwc2UgY3g9IjM2OS41IiBjeT0iNjk1Ljg4MjgiIGZpbGw9IiM4NEJFODQiIHJ4PSIzIiByeT0iMyIgc3R5bGU9InN0cm9rZTojMDM4MDQ4O3N0cm9rZS13aWR0aDoxLjA7Ii8+PHRleHQgZmlsbD0iIzAwMDAwMCIgZm9udC1mYW1pbHk9InNhbnMtc2VyaWYiIGZvbnQtc2l6ZT0iMTQiIGxlbmd0aEFkanVzdD0ic3BhY2luZyIgdGV4dExlbmd0aD0iMTE1IiB4PSIzNzguNSIgeT0iNzAwLjEyNSI+cHJvY2Vzc1BheW1lbnQoKTwvdGV4dD48ZWxsaXBzZSBjeD0iMzY5LjUiIGN5PSI3MTAuODY3MiIgZmlsbD0iIzg0QkU4NCIgcng9IjMiIHJ5PSIzIiBzdHlsZT0ic3Ryb2tlOiMwMzgwNDg7c3Ryb2tlLXdpZHRoOjEuMDsiLz48dGV4dCBmaWxsPSIjMDAwMDAwIiBmb250LWZhbWlseT0ic2Fucy1zZXJpZiIgZm9udC1zaXplPSIxNCIgbGVuZ3RoQWRqdXN0PSJzcGFjaW5nIiB0ZXh0TGVuZ3RoPSI4NiIgeD0iMzc4LjUiIHk9IjcxNS4xMDk0Ij5yYXRlRHJpdmVyKCk8L3RleHQ+PGVsbGlwc2UgY3g9IjM2OS41IiBjeT0iNzI1Ljg1MTYiIGZpbGw9IiM4NEJFODQiIHJ4PSIzIiByeT0iMyIgc3R5bGU9InN0cm9rZTojMDM4MDQ4O3N0cm9rZS13aWR0aDoxLjA7Ii8+PHRleHQgZmlsbD0iIzAwMDAwMCIgZm9udC1mYW1pbHk9InNhbnMtc2VyaWYiIGZvbnQtc2l6ZT0iMTQiIGxlbmd0aEFkanVzdD0ic3BhY2luZyIgdGV4dExlbmd0aD0iOTMiIHg9IjM3OC41IiB5PSI3MzAuMDkzOCI+Z2V0VGllckxpc3QoKTwvdGV4dD48ZWxsaXBzZSBjeD0iMzY5LjUiIGN5PSI3NDAuODM1OSIgZmlsbD0iIzg0QkU4NCIgcng9IjMiIHJ5PSIzIiBzdHlsZT0ic3Ryb2tlOiMwMzgwNDg7c3Ryb2tlLXdpZHRoOjEuMDsiLz48dGV4dCBmaWxsPSIjMDAwMDAwIiBmb250LWZhbWlseT0ic2Fucy1zZXJpZiIgZm9udC1zaXplPSIxNCIgbGVuZ3RoQWRqdXN0PSJzcGFjaW5nIiB0ZXh0TGVuZ3RoPSIxMTQiIHg9IjM3OC41IiB5PSI3NDUuMDc4MSI+Y29udGFjdFN1cHBvcnQoKTwvdGV4dD48L2c+PCEtLWNsYXNzIE1lc3NhZ2UtLT48ZyBpZD0iZWxlbV9NZXNzYWdlIj48cmVjdCBjb2RlTGluZT0iNjIiIGZpbGw9IiNGMUYxRjEiIGhlaWdodD0iMjEyLjgyODEiIGlkPSJNZXNzYWdlIiByeD0iMi41IiByeT0iMi41IiBzdHlsZT0ic3Ryb2tlOiMxODE4MTg7c3Ryb2tlLXdpZHRoOjAuNTsiIHdpZHRoPSIxNjAiIHg9IjU2MS41IiB5PSI1MzgiLz48ZWxsaXBzZSBjeD0iNjEyLjc1IiBjeT0iNTU0IiBmaWxsPSIjQUREMUIyIiByeD0iMTEiIHJ5PSIxMSIgc3R5bGU9InN0cm9rZTojMTgxODE4O3N0cm9rZS13aWR0aDoxLjA7Ii8+PHBhdGggZD0iTTYxMC4zNzUsNTU4LjI1IEw2MTAuMzc1LDU2MCBMNjE1LjMxMjUsNTYwIEw2MTUuMzEyNSw1NTguMjUgTDYxMC4zNzUsNTU4LjI1IFogTTYxMS4wNjI1LDU1OC45Mzc1IFE2MTEuMDYyNSw1NTguOTM3NSA2MTEuMDYyNSw1NDkuNzUgTDYwOS4zMTI1LDU0OS43NSBRNjA5LjMxMjUsNTQ5Ljc1IDYwOS4zMTI1LDU1OC45Mzc1IEw2MTEuMDYyNSw1NTguOTM3NSBaIE02MTQuNjI1LDU1OC45Mzc1IEw2MTYuMzc1LDU1OC45Mzc1IFE2MTYuMzc1LDU1OC45Mzc1IDYxNi4zNzUsNTU2LjEyNSBMNjE0LjYyNSw1NTYuMTI1IFE2MTQuNjI1LDU1Ni4xMjUgNjE0LjYyNSw1NTguOTM3NSBaIE02MTQuNjI1LDU0OS43NSBRNjE0LjYyNSw1NDkuNzUgNjE0LjYyNSw1NTIuNTYyNSBMNjE2LjM3NSw1NTIuNTYyNSBRNjE2LjM3NSw1NTIuNTYyNSA2MTYuMzc1LDU0OS43NSBMNjE0LjYyNSw1NDkuNzUgWiBNNjEwLjM3NSw1NTAuNDM3NSBMNjE1LjMxMjUsNTUwLjQzNzUgTDYxNS4zMTI1LDU0OC42ODc1IEw2MTAuMzc1LDU0OC42ODc1IEw2MTAuMzc1LDU1MC40Mzc1IFogIiBmaWxsPSIjMDAwMDAwIi8+PHRleHQgZmlsbD0iIzAwMDAwMCIgZm9udC1mYW1pbHk9InNhbnMtc2VyaWYiIGZvbnQtc2l6ZT0iMTQiIGxlbmd0aEFkanVzdD0ic3BhY2luZyIgdGV4dExlbmd0aD0iNDkiIHg9IjYzMy4yNSIgeT0iNTU5Ljc0MjIiPk1lc3NhZ2U8L3RleHQ+PGxpbmUgc3R5bGU9InN0cm9rZTojMTgxODE4O3N0cm9rZS13aWR0aDowLjU7IiB4MT0iNTYyLjUiIHgyPSI3MjAuNSIgeTE9IjU3MCIgeTI9IjU3MCIvPjxlbGxpcHNlIGN4PSI1NzIuNSIgY3k9IjU4Mi45OTIyIiBmaWxsPSJub25lIiByeD0iMyIgcnk9IjMiIHN0eWxlPSJzdHJva2U6IzAzODA0ODtzdHJva2Utd2lkdGg6MS4wOyIvPjx0ZXh0IGZpbGw9IiMwMDAwMDAiIGZvbnQtZmFtaWx5PSJzYW5zLXNlcmlmIiBmb250LXNpemU9IjE0IiBsZW5ndGhBZGp1c3Q9InNwYWNpbmciIHRleHRMZW5ndGg9IjY0IiB4PSI1ODEuNSIgeT0iNTg3LjIzNDQiPm1lc3NhZ2VJZDwvdGV4dD48ZWxsaXBzZSBjeD0iNTcyLjUiIGN5PSI1OTcuOTc2NiIgZmlsbD0ibm9uZSIgcng9IjMiIHJ5PSIzIiBzdHlsZT0ic3Ryb2tlOiMwMzgwNDg7c3Ryb2tlLXdpZHRoOjEuMDsiLz48dGV4dCBmaWxsPSIjMDAwMDAwIiBmb250LWZhbWlseT0ic2Fucy1zZXJpZiIgZm9udC1zaXplPSIxNCIgbGVuZ3RoQWRqdXN0PSJzcGFjaW5nIiB0ZXh0TGVuZ3RoPSI3OSIgeD0iNTgxLjUiIHk9IjYwMi4yMTg4Ij5tZXNzYWdlVGltZTwvdGV4dD48ZWxsaXBzZSBjeD0iNTcyLjUiIGN5PSI2MTIuOTYwOSIgZmlsbD0ibm9uZSIgcng9IjMiIHJ5PSIzIiBzdHlsZT0ic3Ryb2tlOiMwMzgwNDg7c3Ryb2tlLXdpZHRoOjEuMDsiLz48dGV4dCBmaWxsPSIjMDAwMDAwIiBmb250LWZhbWlseT0ic2Fucy1zZXJpZiIgZm9udC1zaXplPSIxNCIgbGVuZ3RoQWRqdXN0PSJzcGFjaW5nIiB0ZXh0TGVuZ3RoPSIxMTMiIHg9IjU4MS41IiB5PSI2MTcuMjAzMSI+bWVzc2FnZVNlbmRlclJlZjwvdGV4dD48ZWxsaXBzZSBjeD0iNTcyLjUiIGN5PSI2MjcuOTQ1MyIgZmlsbD0ibm9uZSIgcng9IjMiIHJ5PSIzIiBzdHlsZT0ic3Ryb2tlOiMwMzgwNDg7c3Ryb2tlLXdpZHRoOjEuMDsiLz48dGV4dCBmaWxsPSIjMDAwMDAwIiBmb250LWZhbWlseT0ic2Fucy1zZXJpZiIgZm9udC1zaXplPSIxNCIgbGVuZ3RoQWRqdXN0PSJzcGFjaW5nIiB0ZXh0TGVuZ3RoPSIxMzQiIHg9IjU4MS41IiB5PSI2MzIuMTg3NSI+bWVzc2FnZVJlY2lwaWVudFJlZjwvdGV4dD48ZWxsaXBzZSBjeD0iNTcyLjUiIGN5PSI2NDIuOTI5NyIgZmlsbD0ibm9uZSIgcng9IjMiIHJ5PSIzIiBzdHlsZT0ic3Ryb2tlOiMwMzgwNDg7c3Ryb2tlLXdpZHRoOjEuMDsiLz48dGV4dCBmaWxsPSIjMDAwMDAwIiBmb250LWZhbWlseT0ic2Fucy1zZXJpZiIgZm9udC1zaXplPSIxNCIgbGVuZ3RoQWRqdXN0PSJzcGFjaW5nIiB0ZXh0TGVuZ3RoPSIxMDYiIHg9IjU4MS41IiB5PSI2NDcuMTcxOSI+bWVzc2FnZVByaW9yaXR5PC90ZXh0PjxlbGxpcHNlIGN4PSI1NzIuNSIgY3k9IjY1Ny45MTQxIiBmaWxsPSJub25lIiByeD0iMyIgcnk9IjMiIHN0eWxlPSJzdHJva2U6IzAzODA0ODtzdHJva2Utd2lkdGg6MS4wOyIvPjx0ZXh0IGZpbGw9IiMwMDAwMDAiIGZvbnQtZmFtaWx5PSJzYW5zLXNlcmlmIiBmb250LXNpemU9IjE0IiBsZW5ndGhBZGp1c3Q9InNwYWNpbmciIHRleHRMZW5ndGg9Ijk5IiB4PSI1ODEuNSIgeT0iNjYyLjE1NjMiPm1lc3NhZ2VDb250ZXh0PC90ZXh0PjxlbGxpcHNlIGN4PSI1NzIuNSIgY3k9IjY3Mi44OTg0IiBmaWxsPSJub25lIiByeD0iMyIgcnk9IjMiIHN0eWxlPSJzdHJva2U6IzAzODA0ODtzdHJva2Utd2lkdGg6MS4wOyIvPjx0ZXh0IGZpbGw9IiMwMDAwMDAiIGZvbnQtZmFtaWx5PSJzYW5zLXNlcmlmIiBmb250LXNpemU9IjE0IiBsZW5ndGhBZGp1c3Q9InNwYWNpbmciIHRleHRMZW5ndGg9IjEyOCIgeD0iNTgxLjUiIHk9IjY3Ny4xNDA2Ij5tZXNzYWdlQXR0YWNobWVudHM8L3RleHQ+PGVsbGlwc2UgY3g9IjU3Mi41IiBjeT0iNjg3Ljg4MjgiIGZpbGw9Im5vbmUiIHJ4PSIzIiByeT0iMyIgc3R5bGU9InN0cm9rZTojMDM4MDQ4O3N0cm9rZS13aWR0aDoxLjA7Ii8+PHRleHQgZmlsbD0iIzAwMDAwMCIgZm9udC1mYW1pbHk9InNhbnMtc2VyaWYiIGZvbnQtc2l6ZT0iMTQiIGxlbmd0aEFkanVzdD0ic3BhY2luZyIgdGV4dExlbmd0aD0iMTIwIiB4PSI1ODEuNSIgeT0iNjkyLjEyNSI+bWVzc2FnZUJvb2tpbmdSZWY8L3RleHQ+PGxpbmUgc3R5bGU9InN0cm9rZTojMTgxODE4O3N0cm9rZS13aWR0aDowLjU7IiB4MT0iNTYyLjUiIHgyPSI3MjAuNSIgeTE9IjY5Ny44NzUiIHkyPSI2OTcuODc1Ii8+PGVsbGlwc2UgY3g9IjU3Mi41IiBjeT0iNzEwLjg2NzIiIGZpbGw9IiM4NEJFODQiIHJ4PSIzIiByeT0iMyIgc3R5bGU9InN0cm9rZTojMDM4MDQ4O3N0cm9rZS13aWR0aDoxLjA7Ii8+PHRleHQgZmlsbD0iIzAwMDAwMCIgZm9udC1mYW1pbHk9InNhbnMtc2VyaWYiIGZvbnQtc2l6ZT0iMTQiIGxlbmd0aEFkanVzdD0ic3BhY2luZyIgdGV4dExlbmd0aD0iMTA3IiB4PSI1ODEuNSIgeT0iNzE1LjEwOTQiPmNyZWF0ZU1lc3NhZ2UoKTwvdGV4dD48ZWxsaXBzZSBjeD0iNTcyLjUiIGN5PSI3MjUuODUxNiIgZmlsbD0iIzg0QkU4NCIgcng9IjMiIHJ5PSIzIiBzdHlsZT0ic3Ryb2tlOiMwMzgwNDg7c3Ryb2tlLXdpZHRoOjEuMDsiLz48dGV4dCBmaWxsPSIjMDAwMDAwIiBmb250LWZhbWlseT0ic2Fucy1zZXJpZiIgZm9udC1zaXplPSIxNCIgbGVuZ3RoQWRqdXN0PSJzcGFjaW5nIiB0ZXh0TGVuZ3RoPSIxMDciIHg9IjU4MS41IiB5PSI3MzAuMDkzOCI+dXBkYXRlTWVzc2FnZSgpPC90ZXh0PjxlbGxpcHNlIGN4PSI1NzIuNSIgY3k9Ijc0MC44MzU5IiBmaWxsPSIjODRCRTg0IiByeD0iMyIgcnk9IjMiIHN0eWxlPSJzdHJva2U6IzAzODA0ODtzdHJva2Utd2lkdGg6MS4wOyIvPjx0ZXh0IGZpbGw9IiMwMDAwMDAiIGZvbnQtZmFtaWx5PSJzYW5zLXNlcmlmIiBmb250LXNpemU9IjE0IiBsZW5ndGhBZGp1c3Q9InNwYWNpbmciIHRleHRMZW5ndGg9IjEyOCIgeD0iNTgxLjUiIHk9Ijc0NS4wNzgxIj5nZXRNZXNzYWdlVGhyZWFkKCk8L3RleHQ+PC9nPjwhLS1jbGFzcyBSYXRlLS0+PGcgaWQ9ImVsZW1fUmF0ZSI+PHJlY3QgY29kZUxpbmU9Ijc2IiBmaWxsPSIjRjFGMUYxIiBoZWlnaHQ9IjEzNy45MDYzIiBpZD0iUmF0ZSIgcng9IjIuNSIgcnk9IjIuNSIgc3R5bGU9InN0cm9rZTojMTgxODE4O3N0cm9rZS13aWR0aDowLjU7IiB3aWR0aD0iMTM4IiB4PSI3NTYuNSIgeT0iNTc1LjUiLz48ZWxsaXBzZSBjeD0iODA3LjI1IiBjeT0iNTkxLjUiIGZpbGw9IiNBREQxQjIiIHJ4PSIxMSIgcnk9IjExIiBzdHlsZT0ic3Ryb2tlOiMxODE4MTg7c3Ryb2tlLXdpZHRoOjEuMDsiLz48cGF0aCBkPSJNODA0Ljg3NSw1OTUuNzUgTDgwNC44NzUsNTk3LjUgTDgwOS44MTI1LDU5Ny41IEw4MDkuODEyNSw1OTUuNzUgTDgwNC44NzUsNTk1Ljc1IFogTTgwNS41NjI1LDU5Ni40Mzc1IFE4MDUuNTYyNSw1OTYuNDM3NSA4MDUuNTYyNSw1ODcuMjUgTDgwMy44MTI1LDU4Ny4yNSBRODAzLjgxMjUsNTg3LjI1IDgwMy44MTI1LDU5Ni40Mzc1IEw4MDUuNTYyNSw1OTYuNDM3NSBaIE04MDkuMTI1LDU5Ni40Mzc1IEw4MTAuODc1LDU5Ni40Mzc1IFE4MTAuODc1LDU5Ni40Mzc1IDgxMC44NzUsNTkzLjYyNSBMODA5LjEyNSw1OTMuNjI1IFE4MDkuMTI1LDU5My42MjUgODA5LjEyNSw1OTYuNDM3NSBaIE04MDkuMTI1LDU4Ny4yNSBRODA5LjEyNSw1ODcuMjUgODA5LjEyNSw1OTAuMDYyNSBMODEwLjg3NSw1OTAuMDYyNSBRODEwLjg3NSw1OTAuMDYyNSA4MTAuODc1LDU4Ny4yNSBMODA5LjEyNSw1ODcuMjUgWiBNODA0Ljg3NSw1ODcuOTM3NSBMODA5LjgxMjUsNTg3LjkzNzUgTDgwOS44MTI1LDU4Ni4xODc1IEw4MDQuODc1LDU4Ni4xODc1IEw4MDQuODc1LDU4Ny45Mzc1IFogIiBmaWxsPSIjMDAwMDAwIi8+PHRleHQgZmlsbD0iIzAwMDAwMCIgZm9udC1mYW1pbHk9InNhbnMtc2VyaWYiIGZvbnQtc2l6ZT0iMTQiIGxlbmd0aEFkanVzdD0ic3BhY2luZyIgdGV4dExlbmd0aD0iMjgiIHg9IjgyNy43NSIgeT0iNTk3LjI0MjIiPlJhdGU8L3RleHQ+PGxpbmUgc3R5bGU9InN0cm9rZTojMTgxODE4O3N0cm9rZS13aWR0aDowLjU7IiB4MT0iNzU3LjUiIHgyPSI4OTMuNSIgeTE9IjYwNy41IiB5Mj0iNjA3LjUiLz48ZWxsaXBzZSBjeD0iNzY3LjUiIGN5PSI2MjAuNDkyMiIgZmlsbD0ibm9uZSIgcng9IjMiIHJ5PSIzIiBzdHlsZT0ic3Ryb2tlOiMwMzgwNDg7c3Ryb2tlLXdpZHRoOjEuMDsiLz48dGV4dCBmaWxsPSIjMDAwMDAwIiBmb250LWZhbWlseT0ic2Fucy1zZXJpZiIgZm9udC1zaXplPSIxNCIgbGVuZ3RoQWRqdXN0PSJzcGFjaW5nIiB0ZXh0TGVuZ3RoPSI0MiIgeD0iNzc2LjUiIHk9IjYyNC43MzQ0Ij5yYXRlSWQ8L3RleHQ+PGVsbGlwc2UgY3g9Ijc2Ny41IiBjeT0iNjM1LjQ3NjYiIGZpbGw9Im5vbmUiIHJ4PSIzIiByeT0iMyIgc3R5bGU9InN0cm9rZTojMDM4MDQ4O3N0cm9rZS13aWR0aDoxLjA7Ii8+PHRleHQgZmlsbD0iIzAwMDAwMCIgZm9udC1mYW1pbHk9InNhbnMtc2VyaWYiIGZvbnQtc2l6ZT0iMTQiIGxlbmd0aEFkanVzdD0ic3BhY2luZyIgdGV4dExlbmd0aD0iOTEiIHg9Ijc3Ni41IiB5PSI2MzkuNzE4OCI+cmF0ZVNlbmRlclJlZjwvdGV4dD48ZWxsaXBzZSBjeD0iNzY3LjUiIGN5PSI2NTAuNDYwOSIgZmlsbD0ibm9uZSIgcng9IjMiIHJ5PSIzIiBzdHlsZT0ic3Ryb2tlOiMwMzgwNDg7c3Ryb2tlLXdpZHRoOjEuMDsiLz48dGV4dCBmaWxsPSIjMDAwMDAwIiBmb250LWZhbWlseT0ic2Fucy1zZXJpZiIgZm9udC1zaXplPSIxNCIgbGVuZ3RoQWRqdXN0PSJzcGFjaW5nIiB0ZXh0TGVuZ3RoPSIxMTIiIHg9Ijc3Ni41IiB5PSI2NTQuNzAzMSI+cmF0ZVJlY2lwaWVudFJlZjwvdGV4dD48ZWxsaXBzZSBjeD0iNzY3LjUiIGN5PSI2NjUuNDQ1MyIgZmlsbD0ibm9uZSIgcng9IjMiIHJ5PSIzIiBzdHlsZT0ic3Ryb2tlOiMwMzgwNDg7c3Ryb2tlLXdpZHRoOjEuMDsiLz48dGV4dCBmaWxsPSIjMDAwMDAwIiBmb250LWZhbWlseT0ic2Fucy1zZXJpZiIgZm9udC1zaXplPSIxNCIgbGVuZ3RoQWRqdXN0PSJzcGFjaW5nIiB0ZXh0TGVuZ3RoPSI2MyIgeD0iNzc2LjUiIHk9IjY2OS42ODc1Ij5yYXRlU3RhcnM8L3RleHQ+PGVsbGlwc2UgY3g9Ijc2Ny41IiBjeT0iNjgwLjQyOTciIGZpbGw9Im5vbmUiIHJ4PSIzIiByeT0iMyIgc3R5bGU9InN0cm9rZTojMDM4MDQ4O3N0cm9rZS13aWR0aDoxLjA7Ii8+PHRleHQgZmlsbD0iIzAwMDAwMCIgZm9udC1mYW1pbHk9InNhbnMtc2VyaWYiIGZvbnQtc2l6ZT0iMTQiIGxlbmd0aEFkanVzdD0ic3BhY2luZyIgdGV4dExlbmd0aD0iMTA1IiB4PSI3NzYuNSIgeT0iNjg0LjY3MTkiPnJhdGVEZXNjcmlwdGlvbjwvdGV4dD48bGluZSBzdHlsZT0ic3Ryb2tlOiMxODE4MTg7c3Ryb2tlLXdpZHRoOjAuNTsiIHgxPSI3NTcuNSIgeDI9Ijg5My41IiB5MT0iNjkwLjQyMTkiIHkyPSI2OTAuNDIxOSIvPjxlbGxpcHNlIGN4PSI3NjcuNSIgY3k9IjcwMy40MTQxIiBmaWxsPSIjODRCRTg0IiByeD0iMyIgcnk9IjMiIHN0eWxlPSJzdHJva2U6IzAzODA0ODtzdHJva2Utd2lkdGg6MS4wOyIvPjx0ZXh0IGZpbGw9IiMwMDAwMDAiIGZvbnQtZmFtaWx5PSJzYW5zLXNlcmlmIiBmb250LXNpemU9IjE0IiBsZW5ndGhBZGp1c3Q9InNwYWNpbmciIHRleHRMZW5ndGg9IjEwOCIgeD0iNzc2LjUiIHk9IjcwNy42NTYzIj5jcmVhdGVOZXdSYXRlKCk8L3RleHQ+PC9nPjwhLS1saW5rIFVzZXIgdG8gQm9va2luZy0tPjxnIGlkPSJsaW5rX1VzZXJfQm9va2luZyI+PHBhdGggY29kZUxpbmU9Ijg1IiBkPSJNNDQyLjUsMjA1LjEyIEM0NDIuNSwyMjQuNTggNDQyLjUsMjM5LjA5IDQ0Mi41LDI1OC43OSAiIGZpbGw9Im5vbmUiIGlkPSJVc2VyLXRvLUJvb2tpbmciIHN0eWxlPSJzdHJva2U6IzE4MTgxODtzdHJva2Utd2lkdGg6MS4wOyIvPjxwb2x5Z29uIGZpbGw9IiMxODE4MTgiIHBvaW50cz0iNDQyLjUsMjY0Ljc5LDQ0Ni41LDI1NS43OSw0NDIuNSwyNTkuNzksNDM4LjUsMjU1Ljc5LDQ0Mi41LDI2NC43OSIgc3R5bGU9InN0cm9rZTojMTgxODE4O3N0cm9rZS13aWR0aDoxLjA7Ii8+PC9nPjwhLS1saW5rIEJvb2tpbmcgdG8gQ2FyLS0+PGcgaWQ9ImxpbmtfQm9va2luZ19DYXIiPjxwYXRoIGNvZGVMaW5lPSI4NiIgZD0iTTM2NS44NCw0MTAuOTYgQzMwOS4xMiw0NDEuMzMgMjMxLjYxLDQ4Ni45OSAxNzEuNSw1MzggQzE2My4zOSw1NDQuODkgMTU5LjU1MjUsNTQ4LjIxODEgMTUxLjg0MjUsNTU2LjE0ODEgIiBmaWxsPSJub25lIiBpZD0iQm9va2luZy10by1DYXIiIHN0eWxlPSJzdHJva2U6IzE4MTgxODtzdHJva2Utd2lkdGg6MS4wOyIvPjxwb2x5Z29uIGZpbGw9IiMxODE4MTgiIHBvaW50cz0iMTQ3LjY2LDU2MC40NSwxNTYuODAxOCw1NTYuNzg1NSwxNTEuMTQ1NSw1NTYuODY1MSwxNTEuMDY1OSw1NTEuMjA4OCwxNDcuNjYsNTYwLjQ1IiBzdHlsZT0ic3Ryb2tlOiMxODE4MTg7c3Ryb2tlLXdpZHRoOjEuMDsiLz48L2c+PCEtLWxpbmsgQm9va2luZyB0byBUaWVyLS0+PGcgaWQ9ImxpbmtfQm9va2luZ19UaWVyIj48cGF0aCBjb2RlTGluZT0iODciIGQ9Ik0zNzAuMDUsNDc4LjA1IEMzNDcuNjEsNTEwLjc1IDMyNi44ODUsNTQwLjk0MjkgMzA2LjY3NSw1NzAuMzkyOSAiIGZpbGw9Im5vbmUiIGlkPSJCb29raW5nLXRvLVRpZXIiIHN0eWxlPSJzdHJva2U6IzE4MTgxODtzdHJva2Utd2lkdGg6MS4wOyIvPjxwb2x5Z29uIGZpbGw9IiMxODE4MTgiIHBvaW50cz0iMzAzLjI4LDU3NS4zNCwzMTEuNjcwNSw1NzAuMTgyNiwzMDYuMTA5MSw1NzEuMjE3NCwzMDUuMDc0NCw1NjUuNjU2LDMwMy4yOCw1NzUuMzQiIHN0eWxlPSJzdHJva2U6IzE4MTgxODtzdHJva2Utd2lkdGg6MS4wOyIvPjwvZz48IS0tbGluayBCb29raW5nIHRvIFNlcnZlci0tPjxnIGlkPSJsaW5rX0Jvb2tpbmdfU2VydmVyIj48cGF0aCBjb2RlTGluZT0iODgiIGQ9Ik00NDIuNSw0NzguMDUgQzQ0Mi41LDQ5Ny42NyA0NDIuNSw1MTIuMTcgNDQyLjUsNTMxLjc5ICIgZmlsbD0ibm9uZSIgaWQ9IkJvb2tpbmctdG8tU2VydmVyIiBzdHlsZT0ic3Ryb2tlOiMxODE4MTg7c3Ryb2tlLXdpZHRoOjEuMDsiLz48cG9seWdvbiBmaWxsPSIjMTgxODE4IiBwb2ludHM9IjQ0Mi41LDUzNy43OSw0NDYuNSw1MjguNzksNDQyLjUsNTMyLjc5LDQzOC41LDUyOC43OSw0NDIuNSw1MzcuNzkiIHN0eWxlPSJzdHJva2U6IzE4MTgxODtzdHJva2Utd2lkdGg6MS4wOyIvPjwvZz48IS0tbGluayBCb29raW5nIHRvIE1lc3NhZ2UtLT48ZyBpZD0ibGlua19Cb29raW5nX01lc3NhZ2UiPjxwYXRoIGNvZGVMaW5lPSI4OSIgZD0iTTUxOS4xNSw0NzYuODkgQzUzMy44Myw0OTYuODcgNTQ1LjY0ODksNTEyLjk2MzcgNTYwLjM0ODksNTMyLjk4MzcgIiBmaWxsPSJub25lIiBpZD0iQm9va2luZy10by1NZXNzYWdlIiBzdHlsZT0ic3Ryb2tlOiMxODE4MTg7c3Ryb2tlLXdpZHRoOjEuMDsiLz48cG9seWdvbiBmaWxsPSIjMTgxODE4IiBwb2ludHM9IjU2My45LDUzNy44Miw1NjEuNzk3NSw1MjguMTk4Miw1NjAuOTQwNyw1MzMuNzg5OCw1NTUuMzQ5MSw1MzIuOTMzLDU2My45LDUzNy44MiIgc3R5bGU9InN0cm9rZTojMTgxODE4O3N0cm9rZS13aWR0aDoxLjA7Ii8+PC9nPjwhLS1saW5rIEJvb2tpbmcgdG8gUmF0ZS0tPjxnIGlkPSJsaW5rX0Jvb2tpbmdfUmF0ZSI+PHBhdGggY29kZUxpbmU9IjkwIiBkPSJNNTE5LjE0LDQwNS4zMSBDNTgyLjI0LDQzNC41NSA2NzEuOTgsNDgxLjQxIDczOS41LDUzOCBDNzUyLjU0LDU0OC45MyA3NjEuMTYzNSw1NTcuNDg4OSA3NzIuNDAzNSw1NzAuNzA4OSAiIGZpbGw9Im5vbmUiIGlkPSJCb29raW5nLXRvLVJhdGUiIHN0eWxlPSJzdHJva2U6IzE4MTgxODtzdHJva2Utd2lkdGg6MS4wOyIvPjxwb2x5Z29uIGZpbGw9IiMxODE4MTgiIHBvaW50cz0iNzc2LjI5LDU3NS4yOCw3NzMuNTA3Nyw1NjUuODMyMyw3NzMuMDUxMyw1NzEuNDcwNyw3NjcuNDEyOCw1NzEuMDE0Myw3NzYuMjksNTc1LjI4IiBzdHlsZT0ic3Ryb2tlOiMxODE4MTg7c3Ryb2tlLXdpZHRoOjEuMDsiLz48L2c+PCEtLVNSQz1bVkxIUlJqaW00RnB0QVZwUGVDV0wyWUhzSzBJODR5NXMzeTFHUXVrOEgwaEJiSENad0RzeDVEeW9LN3puSGtKa3A3OWVzR2pocnR5aXVGZnhqVVJWcHVkTnBzclVsdWUxQ2RlUVhFZXBSM2daWXd5RDVfaXFNOXAtM1JlNXA3WGwtY0JfNWVaQk1LejgxNDdtMmZ6RXBPeXhKbXdjTFFUaE9Gd2tMZEJNa241OWhYSDlCSV9UblpzUzRqd1A1bGc0WmdoLSAtY0FhODZMcXNPZkJuenY5S0M0WGQxMWk1cS1NZVh3RC1MM3c3OE16VW5aNTFSWDVUSWI0MTdPcE1KQjNCTnpLU1ZSbi04STV1YTBVSUQxYWJuSElPdkljWWR4SVJLNXdWcTVzRDNZREJQRS12RnlsbUtxcGNZTUxHLUZNRUpHRURRWGEwVHltSFM5TlRmTGtYWHg4ckV1MFVDYUR4T29Vam9LZ3YtMlAtZTl4U3JPd3pINnpkN05MWkhWSmkyMUdUV3lOSmdidXh3NDhtZVg2V2hNRGswd1dBU00zSV9XaFppbVBvM2J2S0pQamFhUUphN0lPbmo0V2JIdnRONTZTOFBlU0Y4bzMzSjI3OFgyNy1Pc2J4MEhzM3JBRFloS2pGeDFoV3VnazVSYlhKVjE1NVZUMEJCRHB6Y3A1WG5kYmJwSEZCY1lsU3hHV1VIWTFFTlB5ZzJzenh0YnhERXg2NjVzeHpTQVhlc3hqZVN5anNrOGdtNGZLT3V2MElmVmh2aGxGX3R0dHp4X1ktcnQ1VC1tdWxsMEFrd2tpMjlfQVlXZUVBeXdyLW1TMF0tLT48L2c+PC9zdmc+;" vertex="1" parent="1">
            <mxGeometry x="-40" y="-100" width="901" height="757" as="geometry" />
          </mxCell>
        </UserObject>
      </root>
    </mxGraphModel>
  </diagram>
  <diagram id="y25HG-kDSHt71GGfUNvY" name="Sequence Diagram">
    <mxGraphModel dx="1050" dy="1699" grid="1" gridSize="10" guides="1" tooltips="1" connect="1" arrows="1" fold="1" page="1" pageScale="1" pageWidth="827" pageHeight="1169" math="0" shadow="0">
      <root>
        <mxCell id="0" />
        <mxCell id="1" parent="0" />
        <UserObject label="" plantUmlData="{&#xa;  &quot;data&quot;: &quot;@startuml\n\nactor Customer\nactor Driver\n\nCustomer -&gt; App: Login\nApp -&gt; Server: Login\nServer -&gt; App: Login successful\nApp -&gt; Customer: Login approved\n\nCustomer -&gt; App: Choose destination\nCustomer -&gt; App: Choose Tier\nCustomer -&gt; App: Choose Time (opt)\nCustomer -&gt; App: Price\nCustomer -&gt; App: Pay the bill\nApp -&gt; Server: Create payment\nServer -&gt; Booking: Payment link/credentials\nBooking -&gt; Server: Check payment\nServer -&gt; App: Payment successful\nApp -&gt; Customer: Display successful payment message\n\nApp -&gt; Server: Search car\nServer -&gt; Booking: Search car\nBooking -&gt; Driver: Contact Driver\nDriver -&gt; Booking: Driver accept trip\nBooking -&gt; Server: Driver found\nServer -&gt; App: Driver found\nApp -&gt; Customer: Display driver found message\n\n@enduml\n&quot;,&#xa;  &quot;format&quot;: &quot;svg&quot;&#xa;}" id="d7umQX77XIJizlghnpbM-1">
          <mxCell style="shape=image;noLabel=1;verticalAlign=top;aspect=fixed;imageAspect=0;image=data:image/svg+xml,PD94bWwgdmVyc2lvbj0iMS4wIiBlbmNvZGluZz0idXMtYXNjaWkiIHN0YW5kYWxvbmU9Im5vIj8+PHN2ZyB4bWxucz0iaHR0cDovL3d3dy53My5vcmcvMjAwMC9zdmciIHhtbG5zOnhsaW5rPSJodHRwOi8vd3d3LnczLm9yZy8xOTk5L3hsaW5rIiBjb250ZW50U3R5bGVUeXBlPSJ0ZXh0L2NzcyIgaGVpZ2h0PSI3NjVweCIgcHJlc2VydmVBc3BlY3RSYXRpbz0ibm9uZSIgc3R5bGU9IndpZHRoOjY2MHB4O2hlaWdodDo3NjVweDtiYWNrZ3JvdW5kOiNGRkZGRkY7IiB2ZXJzaW9uPSIxLjEiIHZpZXdCb3g9IjAgMCA2NjAgNzY1IiB3aWR0aD0iNjYwcHgiIHpvb21BbmRQYW49Im1hZ25pZnkiPjxkZWZzLz48Zz48bGluZSBzdHlsZT0ic3Ryb2tlOiMxODE4MTg7c3Ryb2tlLXdpZHRoOjAuNTtzdHJva2UtZGFzaGFycmF5OjUuMCw1LjA7IiB4MT0iMzYiIHgyPSIzNiIgeTE9Ijc5Ljk4NDQiIHkyPSI2ODYuMTc5NyIvPjxsaW5lIHN0eWxlPSJzdHJva2U6IzE4MTgxODtzdHJva2Utd2lkdGg6MC41O3N0cm9rZS1kYXNoYXJyYXk6NS4wLDUuMDsiIHgxPSIxMDIiIHgyPSIxMDIiIHkxPSI3OS45ODQ0IiB5Mj0iNjg2LjE3OTciLz48bGluZSBzdHlsZT0ic3Ryb2tlOiMxODE4MTg7c3Ryb2tlLXdpZHRoOjAuNTtzdHJva2UtZGFzaGFycmF5OjUuMCw1LjA7IiB4MT0iMjkxIiB4Mj0iMjkxIiB5MT0iNzkuOTg0NCIgeTI9IjY4Ni4xNzk3Ii8+PGxpbmUgc3R5bGU9InN0cm9rZTojMTgxODE4O3N0cm9rZS13aWR0aDowLjU7c3Ryb2tlLWRhc2hhcnJheTo1LjAsNS4wOyIgeDE9IjQzNy41IiB4Mj0iNDM3LjUiIHkxPSI3OS45ODQ0IiB5Mj0iNjg2LjE3OTciLz48bGluZSBzdHlsZT0ic3Ryb2tlOiMxODE4MTg7c3Ryb2tlLXdpZHRoOjAuNTtzdHJva2UtZGFzaGFycmF5OjUuMCw1LjA7IiB4MT0iNjIyIiB4Mj0iNjIyIiB5MT0iNzkuOTg0NCIgeTI9IjY4Ni4xNzk3Ii8+PHRleHQgZmlsbD0iIzAwMDAwMCIgZm9udC1mYW1pbHk9InNhbnMtc2VyaWYiIGZvbnQtc2l6ZT0iMTQiIGxlbmd0aEFkanVzdD0ic3BhY2luZyIgdGV4dExlbmd0aD0iNTciIHg9IjUiIHk9Ijc4LjIzNDQiPkN1c3RvbWVyPC90ZXh0PjxlbGxpcHNlIGN4PSIzNi41IiBjeT0iMTMuNSIgZmlsbD0iI0UyRTJGMCIgcng9IjgiIHJ5PSI4IiBzdHlsZT0ic3Ryb2tlOiMxODE4MTg7c3Ryb2tlLXdpZHRoOjAuNTsiLz48cGF0aCBkPSJNMzYuNSwyMS41IEwzNi41LDQ4LjUgTTIzLjUsMjkuNSBMNDkuNSwyOS41IE0zNi41LDQ4LjUgTDIzLjUsNjMuNSBNMzYuNSw0OC41IEw0OS41LDYzLjUgIiBmaWxsPSJub25lIiBzdHlsZT0ic3Ryb2tlOiMxODE4MTg7c3Ryb2tlLXdpZHRoOjAuNTsiLz48dGV4dCBmaWxsPSIjMDAwMDAwIiBmb250LWZhbWlseT0ic2Fucy1zZXJpZiIgZm9udC1zaXplPSIxNCIgbGVuZ3RoQWRqdXN0PSJzcGFjaW5nIiB0ZXh0TGVuZ3RoPSI1NyIgeD0iNSIgeT0iNjk4LjQxNDEiPkN1c3RvbWVyPC90ZXh0PjxlbGxpcHNlIGN4PSIzNi41IiBjeT0iNzA4LjY2NDEiIGZpbGw9IiNFMkUyRjAiIHJ4PSI4IiByeT0iOCIgc3R5bGU9InN0cm9rZTojMTgxODE4O3N0cm9rZS13aWR0aDowLjU7Ii8+PHBhdGggZD0iTTM2LjUsNzE2LjY2NDEgTDM2LjUsNzQzLjY2NDEgTTIzLjUsNzI0LjY2NDEgTDQ5LjUsNzI0LjY2NDEgTTM2LjUsNzQzLjY2NDEgTDIzLjUsNzU4LjY2NDEgTTM2LjUsNzQzLjY2NDEgTDQ5LjUsNzU4LjY2NDEgIiBmaWxsPSJub25lIiBzdHlsZT0ic3Ryb2tlOiMxODE4MTg7c3Ryb2tlLXdpZHRoOjAuNTsiLz48dGV4dCBmaWxsPSIjMDAwMDAwIiBmb250LWZhbWlseT0ic2Fucy1zZXJpZiIgZm9udC1zaXplPSIxNCIgbGVuZ3RoQWRqdXN0PSJzcGFjaW5nIiB0ZXh0TGVuZ3RoPSI0MiIgeD0iNzgiIHk9Ijc4LjIzNDQiPkRyaXZlcjwvdGV4dD48ZWxsaXBzZSBjeD0iMTAyIiBjeT0iMTMuNSIgZmlsbD0iI0UyRTJGMCIgcng9IjgiIHJ5PSI4IiBzdHlsZT0ic3Ryb2tlOiMxODE4MTg7c3Ryb2tlLXdpZHRoOjAuNTsiLz48cGF0aCBkPSJNMTAyLDIxLjUgTDEwMiw0OC41IE04OSwyOS41IEwxMTUsMjkuNSBNMTAyLDQ4LjUgTDg5LDYzLjUgTTEwMiw0OC41IEwxMTUsNjMuNSAiIGZpbGw9Im5vbmUiIHN0eWxlPSJzdHJva2U6IzE4MTgxODtzdHJva2Utd2lkdGg6MC41OyIvPjx0ZXh0IGZpbGw9IiMwMDAwMDAiIGZvbnQtZmFtaWx5PSJzYW5zLXNlcmlmIiBmb250LXNpemU9IjE0IiBsZW5ndGhBZGp1c3Q9InNwYWNpbmciIHRleHRMZW5ndGg9IjQyIiB4PSI3OCIgeT0iNjk4LjQxNDEiPkRyaXZlcjwvdGV4dD48ZWxsaXBzZSBjeD0iMTAyIiBjeT0iNzA4LjY2NDEiIGZpbGw9IiNFMkUyRjAiIHJ4PSI4IiByeT0iOCIgc3R5bGU9InN0cm9rZTojMTgxODE4O3N0cm9rZS13aWR0aDowLjU7Ii8+PHBhdGggZD0iTTEwMiw3MTYuNjY0MSBMMTAyLDc0My42NjQxIE04OSw3MjQuNjY0MSBMMTE1LDcyNC42NjQxIE0xMDIsNzQzLjY2NDEgTDg5LDc1OC42NjQxIE0xMDIsNzQzLjY2NDEgTDExNSw3NTguNjY0MSAiIGZpbGw9Im5vbmUiIHN0eWxlPSJzdHJva2U6IzE4MTgxODtzdHJva2Utd2lkdGg6MC41OyIvPjxyZWN0IGZpbGw9IiNFMkUyRjAiIGhlaWdodD0iMjguOTg0NCIgcng9IjIuNSIgcnk9IjIuNSIgc3R5bGU9InN0cm9rZTojMTgxODE4O3N0cm9rZS13aWR0aDowLjU7IiB3aWR0aD0iMzUiIHg9IjI3NCIgeT0iNTAiLz48dGV4dCBmaWxsPSIjMDAwMDAwIiBmb250LWZhbWlseT0ic2Fucy1zZXJpZiIgZm9udC1zaXplPSIxNCIgbGVuZ3RoQWRqdXN0PSJzcGFjaW5nIiB0ZXh0TGVuZ3RoPSIyMSIgeD0iMjgxIiB5PSI3MC4yMzQ0Ij5BcHA8L3RleHQ+PHJlY3QgZmlsbD0iI0UyRTJGMCIgaGVpZ2h0PSIyOC45ODQ0IiByeD0iMi41IiByeT0iMi41IiBzdHlsZT0ic3Ryb2tlOiMxODE4MTg7c3Ryb2tlLXdpZHRoOjAuNTsiIHdpZHRoPSIzNSIgeD0iMjc0IiB5PSI2ODUuMTc5NyIvPjx0ZXh0IGZpbGw9IiMwMDAwMDAiIGZvbnQtZmFtaWx5PSJzYW5zLXNlcmlmIiBmb250LXNpemU9IjE0IiBsZW5ndGhBZGp1c3Q9InNwYWNpbmciIHRleHRMZW5ndGg9IjIxIiB4PSIyODEiIHk9IjcwNS40MTQxIj5BcHA8L3RleHQ+PHJlY3QgZmlsbD0iI0UyRTJGMCIgaGVpZ2h0PSIyOC45ODQ0IiByeD0iMi41IiByeT0iMi41IiBzdHlsZT0ic3Ryb2tlOiMxODE4MTg7c3Ryb2tlLXdpZHRoOjAuNTsiIHdpZHRoPSI1NiIgeD0iNDA5LjUiIHk9IjUwIi8+PHRleHQgZmlsbD0iIzAwMDAwMCIgZm9udC1mYW1pbHk9InNhbnMtc2VyaWYiIGZvbnQtc2l6ZT0iMTQiIGxlbmd0aEFkanVzdD0ic3BhY2luZyIgdGV4dExlbmd0aD0iNDIiIHg9IjQxNi41IiB5PSI3MC4yMzQ0Ij5TZXJ2ZXI8L3RleHQ+PHJlY3QgZmlsbD0iI0UyRTJGMCIgaGVpZ2h0PSIyOC45ODQ0IiByeD0iMi41IiByeT0iMi41IiBzdHlsZT0ic3Ryb2tlOiMxODE4MTg7c3Ryb2tlLXdpZHRoOjAuNTsiIHdpZHRoPSI1NiIgeD0iNDA5LjUiIHk9IjY4NS4xNzk3Ii8+PHRleHQgZmlsbD0iIzAwMDAwMCIgZm9udC1mYW1pbHk9InNhbnMtc2VyaWYiIGZvbnQtc2l6ZT0iMTQiIGxlbmd0aEFkanVzdD0ic3BhY2luZyIgdGV4dExlbmd0aD0iNDIiIHg9IjQxNi41IiB5PSI3MDUuNDE0MSI+U2VydmVyPC90ZXh0PjxyZWN0IGZpbGw9IiNFMkUyRjAiIGhlaWdodD0iMjguOTg0NCIgcng9IjIuNSIgcnk9IjIuNSIgc3R5bGU9InN0cm9rZTojMTgxODE4O3N0cm9rZS13aWR0aDowLjU7IiB3aWR0aD0iNjMiIHg9IjU5MSIgeT0iNTAiLz48dGV4dCBmaWxsPSIjMDAwMDAwIiBmb250LWZhbWlseT0ic2Fucy1zZXJpZiIgZm9udC1zaXplPSIxNCIgbGVuZ3RoQWRqdXN0PSJzcGFjaW5nIiB0ZXh0TGVuZ3RoPSI0OSIgeD0iNTk4IiB5PSI3MC4yMzQ0Ij5Cb29raW5nPC90ZXh0PjxyZWN0IGZpbGw9IiNFMkUyRjAiIGhlaWdodD0iMjguOTg0NCIgcng9IjIuNSIgcnk9IjIuNSIgc3R5bGU9InN0cm9rZTojMTgxODE4O3N0cm9rZS13aWR0aDowLjU7IiB3aWR0aD0iNjMiIHg9IjU5MSIgeT0iNjg1LjE3OTciLz48dGV4dCBmaWxsPSIjMDAwMDAwIiBmb250LWZhbWlseT0ic2Fucy1zZXJpZiIgZm9udC1zaXplPSIxNCIgbGVuZ3RoQWRqdXN0PSJzcGFjaW5nIiB0ZXh0TGVuZ3RoPSI0OSIgeD0iNTk4IiB5PSI3MDUuNDE0MSI+Qm9va2luZzwvdGV4dD48cG9seWdvbiBmaWxsPSIjMTgxODE4IiBwb2ludHM9IjI3OS41LDEwNS44OTg0LDI4OS41LDEwOS44OTg0LDI3OS41LDExMy44OTg0LDI4My41LDEwOS44OTg0IiBzdHlsZT0ic3Ryb2tlOiMxODE4MTg7c3Ryb2tlLXdpZHRoOjEuMDsiLz48bGluZSBzdHlsZT0ic3Ryb2tlOiMxODE4MTg7c3Ryb2tlLXdpZHRoOjEuMDsiIHgxPSIzNi41IiB4Mj0iMjg1LjUiIHkxPSIxMDkuODk4NCIgeTI9IjEwOS44OTg0Ii8+PHRleHQgZmlsbD0iIzAwMDAwMCIgZm9udC1mYW1pbHk9InNhbnMtc2VyaWYiIGZvbnQtc2l6ZT0iMTMiIGxlbmd0aEFkanVzdD0ic3BhY2luZyIgdGV4dExlbmd0aD0iMzQiIHg9IjQzLjUiIHk9IjEwNi4yNzM0Ij5Mb2dpbjwvdGV4dD48cG9seWdvbiBmaWxsPSIjMTgxODE4IiBwb2ludHM9IjQyNS41LDEzMy44MTI1LDQzNS41LDEzNy44MTI1LDQyNS41LDE0MS44MTI1LDQyOS41LDEzNy44MTI1IiBzdHlsZT0ic3Ryb2tlOiMxODE4MTg7c3Ryb2tlLXdpZHRoOjEuMDsiLz48bGluZSBzdHlsZT0ic3Ryb2tlOiMxODE4MTg7c3Ryb2tlLXdpZHRoOjEuMDsiIHgxPSIyOTEuNSIgeDI9IjQzMS41IiB5MT0iMTM3LjgxMjUiIHkyPSIxMzcuODEyNSIvPjx0ZXh0IGZpbGw9IiMwMDAwMDAiIGZvbnQtZmFtaWx5PSJzYW5zLXNlcmlmIiBmb250LXNpemU9IjEzIiBsZW5ndGhBZGp1c3Q9InNwYWNpbmciIHRleHRMZW5ndGg9IjM0IiB4PSIyOTguNSIgeT0iMTM0LjE4NzUiPkxvZ2luPC90ZXh0Pjxwb2x5Z29uIGZpbGw9IiMxODE4MTgiIHBvaW50cz0iMzAyLjUsMTYxLjcyNjYsMjkyLjUsMTY1LjcyNjYsMzAyLjUsMTY5LjcyNjYsMjk4LjUsMTY1LjcyNjYiIHN0eWxlPSJzdHJva2U6IzE4MTgxODtzdHJva2Utd2lkdGg6MS4wOyIvPjxsaW5lIHN0eWxlPSJzdHJva2U6IzE4MTgxODtzdHJva2Utd2lkdGg6MS4wOyIgeDE9IjI5Ni41IiB4Mj0iNDM2LjUiIHkxPSIxNjUuNzI2NiIgeTI9IjE2NS43MjY2Ii8+PHRleHQgZmlsbD0iIzAwMDAwMCIgZm9udC1mYW1pbHk9InNhbnMtc2VyaWYiIGZvbnQtc2l6ZT0iMTMiIGxlbmd0aEFkanVzdD0ic3BhY2luZyIgdGV4dExlbmd0aD0iMTA5IiB4PSIzMDguNSIgeT0iMTYyLjEwMTYiPkxvZ2luIHN1Y2Nlc3NmdWw8L3RleHQ+PHBvbHlnb24gZmlsbD0iIzE4MTgxOCIgcG9pbnRzPSI0Ny41LDE4OS42NDA2LDM3LjUsMTkzLjY0MDYsNDcuNSwxOTcuNjQwNiw0My41LDE5My42NDA2IiBzdHlsZT0ic3Ryb2tlOiMxODE4MTg7c3Ryb2tlLXdpZHRoOjEuMDsiLz48bGluZSBzdHlsZT0ic3Ryb2tlOiMxODE4MTg7c3Ryb2tlLXdpZHRoOjEuMDsiIHgxPSI0MS41IiB4Mj0iMjkwLjUiIHkxPSIxOTMuNjQwNiIgeTI9IjE5My42NDA2Ii8+PHRleHQgZmlsbD0iIzAwMDAwMCIgZm9udC1mYW1pbHk9InNhbnMtc2VyaWYiIGZvbnQtc2l6ZT0iMTMiIGxlbmd0aEFkanVzdD0ic3BhY2luZyIgdGV4dExlbmd0aD0iOTciIHg9IjUzLjUiIHk9IjE5MC4wMTU2Ij5Mb2dpbiBhcHByb3ZlZDwvdGV4dD48cG9seWdvbiBmaWxsPSIjMTgxODE4IiBwb2ludHM9IjI3OS41LDIxNy41NTQ3LDI4OS41LDIyMS41NTQ3LDI3OS41LDIyNS41NTQ3LDI4My41LDIyMS41NTQ3IiBzdHlsZT0ic3Ryb2tlOiMxODE4MTg7c3Ryb2tlLXdpZHRoOjEuMDsiLz48bGluZSBzdHlsZT0ic3Ryb2tlOiMxODE4MTg7c3Ryb2tlLXdpZHRoOjEuMDsiIHgxPSIzNi41IiB4Mj0iMjg1LjUiIHkxPSIyMjEuNTU0NyIgeTI9IjIyMS41NTQ3Ii8+PHRleHQgZmlsbD0iIzAwMDAwMCIgZm9udC1mYW1pbHk9InNhbnMtc2VyaWYiIGZvbnQtc2l6ZT0iMTMiIGxlbmd0aEFkanVzdD0ic3BhY2luZyIgdGV4dExlbmd0aD0iMTIyIiB4PSI0My41IiB5PSIyMTcuOTI5NyI+Q2hvb3NlIGRlc3RpbmF0aW9uPC90ZXh0Pjxwb2x5Z29uIGZpbGw9IiMxODE4MTgiIHBvaW50cz0iMjc5LjUsMjQ1LjQ2ODgsMjg5LjUsMjQ5LjQ2ODgsMjc5LjUsMjUzLjQ2ODgsMjgzLjUsMjQ5LjQ2ODgiIHN0eWxlPSJzdHJva2U6IzE4MTgxODtzdHJva2Utd2lkdGg6MS4wOyIvPjxsaW5lIHN0eWxlPSJzdHJva2U6IzE4MTgxODtzdHJva2Utd2lkdGg6MS4wOyIgeDE9IjM2LjUiIHgyPSIyODUuNSIgeTE9IjI0OS40Njg4IiB5Mj0iMjQ5LjQ2ODgiLz48dGV4dCBmaWxsPSIjMDAwMDAwIiBmb250LWZhbWlseT0ic2Fucy1zZXJpZiIgZm9udC1zaXplPSIxMyIgbGVuZ3RoQWRqdXN0PSJzcGFjaW5nIiB0ZXh0TGVuZ3RoPSI3NSIgeD0iNDMuNSIgeT0iMjQ1Ljg0MzgiPkNob29zZSBUaWVyPC90ZXh0Pjxwb2x5Z29uIGZpbGw9IiMxODE4MTgiIHBvaW50cz0iMjc5LjUsMjczLjM4MjgsMjg5LjUsMjc3LjM4MjgsMjc5LjUsMjgxLjM4MjgsMjgzLjUsMjc3LjM4MjgiIHN0eWxlPSJzdHJva2U6IzE4MTgxODtzdHJva2Utd2lkdGg6MS4wOyIvPjxsaW5lIHN0eWxlPSJzdHJva2U6IzE4MTgxODtzdHJva2Utd2lkdGg6MS4wOyIgeDE9IjM2LjUiIHgyPSIyODUuNSIgeTE9IjI3Ny4zODI4IiB5Mj0iMjc3LjM4MjgiLz48dGV4dCBmaWxsPSIjMDAwMDAwIiBmb250LWZhbWlseT0ic2Fucy1zZXJpZiIgZm9udC1zaXplPSIxMyIgbGVuZ3RoQWRqdXN0PSJzcGFjaW5nIiB0ZXh0TGVuZ3RoPSIxMTMiIHg9IjQzLjUiIHk9IjI3My43NTc4Ij5DaG9vc2UgVGltZSAob3B0KTwvdGV4dD48cG9seWdvbiBmaWxsPSIjMTgxODE4IiBwb2ludHM9IjI3OS41LDMwMS4yOTY5LDI4OS41LDMwNS4yOTY5LDI3OS41LDMwOS4yOTY5LDI4My41LDMwNS4yOTY5IiBzdHlsZT0ic3Ryb2tlOiMxODE4MTg7c3Ryb2tlLXdpZHRoOjEuMDsiLz48bGluZSBzdHlsZT0ic3Ryb2tlOiMxODE4MTg7c3Ryb2tlLXdpZHRoOjEuMDsiIHgxPSIzNi41IiB4Mj0iMjg1LjUiIHkxPSIzMDUuMjk2OSIgeTI9IjMwNS4yOTY5Ii8+PHRleHQgZmlsbD0iIzAwMDAwMCIgZm9udC1mYW1pbHk9InNhbnMtc2VyaWYiIGZvbnQtc2l6ZT0iMTMiIGxlbmd0aEFkanVzdD0ic3BhY2luZyIgdGV4dExlbmd0aD0iMzQiIHg9IjQzLjUiIHk9IjMwMS42NzE5Ij5QcmljZTwvdGV4dD48cG9seWdvbiBmaWxsPSIjMTgxODE4IiBwb2ludHM9IjI3OS41LDMyOS4yMTA5LDI4OS41LDMzMy4yMTA5LDI3OS41LDMzNy4yMTA5LDI4My41LDMzMy4yMTA5IiBzdHlsZT0ic3Ryb2tlOiMxODE4MTg7c3Ryb2tlLXdpZHRoOjEuMDsiLz48bGluZSBzdHlsZT0ic3Ryb2tlOiMxODE4MTg7c3Ryb2tlLXdpZHRoOjEuMDsiIHgxPSIzNi41IiB4Mj0iMjg1LjUiIHkxPSIzMzMuMjEwOSIgeTI9IjMzMy4yMTA5Ii8+PHRleHQgZmlsbD0iIzAwMDAwMCIgZm9udC1mYW1pbHk9InNhbnMtc2VyaWYiIGZvbnQtc2l6ZT0iMTMiIGxlbmd0aEFkanVzdD0ic3BhY2luZyIgdGV4dExlbmd0aD0iODAiIHg9IjQzLjUiIHk9IjMyOS41ODU5Ij5QYXkgdGhlIGJpbGw8L3RleHQ+PHBvbHlnb24gZmlsbD0iIzE4MTgxOCIgcG9pbnRzPSI0MjUuNSwzNTcuMTI1LDQzNS41LDM2MS4xMjUsNDI1LjUsMzY1LjEyNSw0MjkuNSwzNjEuMTI1IiBzdHlsZT0ic3Ryb2tlOiMxODE4MTg7c3Ryb2tlLXdpZHRoOjEuMDsiLz48bGluZSBzdHlsZT0ic3Ryb2tlOiMxODE4MTg7c3Ryb2tlLXdpZHRoOjEuMDsiIHgxPSIyOTEuNSIgeDI9IjQzMS41IiB5MT0iMzYxLjEyNSIgeTI9IjM2MS4xMjUiLz48dGV4dCBmaWxsPSIjMDAwMDAwIiBmb250LWZhbWlseT0ic2Fucy1zZXJpZiIgZm9udC1zaXplPSIxMyIgbGVuZ3RoQWRqdXN0PSJzcGFjaW5nIiB0ZXh0TGVuZ3RoPSI5NSIgeD0iMjk4LjUiIHk9IjM1Ny41Ij5DcmVhdGUgcGF5bWVudDwvdGV4dD48cG9seWdvbiBmaWxsPSIjMTgxODE4IiBwb2ludHM9IjYxMC41LDM4NS4wMzkxLDYyMC41LDM4OS4wMzkxLDYxMC41LDM5My4wMzkxLDYxNC41LDM4OS4wMzkxIiBzdHlsZT0ic3Ryb2tlOiMxODE4MTg7c3Ryb2tlLXdpZHRoOjEuMDsiLz48bGluZSBzdHlsZT0ic3Ryb2tlOiMxODE4MTg7c3Ryb2tlLXdpZHRoOjEuMDsiIHgxPSI0MzcuNSIgeDI9IjYxNi41IiB5MT0iMzg5LjAzOTEiIHkyPSIzODkuMDM5MSIvPjx0ZXh0IGZpbGw9IiMwMDAwMDAiIGZvbnQtZmFtaWx5PSJzYW5zLXNlcmlmIiBmb250LXNpemU9IjEzIiBsZW5ndGhBZGp1c3Q9InNwYWNpbmciIHRleHRMZW5ndGg9IjE2MSIgeD0iNDQ0LjUiIHk9IjM4NS40MTQxIj5QYXltZW50IGxpbmsvY3JlZGVudGlhbHM8L3RleHQ+PHBvbHlnb24gZmlsbD0iIzE4MTgxOCIgcG9pbnRzPSI0NDguNSw0MTIuOTUzMSw0MzguNSw0MTYuOTUzMSw0NDguNSw0MjAuOTUzMSw0NDQuNSw0MTYuOTUzMSIgc3R5bGU9InN0cm9rZTojMTgxODE4O3N0cm9rZS13aWR0aDoxLjA7Ii8+PGxpbmUgc3R5bGU9InN0cm9rZTojMTgxODE4O3N0cm9rZS13aWR0aDoxLjA7IiB4MT0iNDQyLjUiIHgyPSI2MjEuNSIgeTE9IjQxNi45NTMxIiB5Mj0iNDE2Ljk1MzEiLz48dGV4dCBmaWxsPSIjMDAwMDAwIiBmb250LWZhbWlseT0ic2Fucy1zZXJpZiIgZm9udC1zaXplPSIxMyIgbGVuZ3RoQWRqdXN0PSJzcGFjaW5nIiB0ZXh0TGVuZ3RoPSI4OSIgeD0iNDU0LjUiIHk9IjQxMy4zMjgxIj5DaGVjayBwYXltZW50PC90ZXh0Pjxwb2x5Z29uIGZpbGw9IiMxODE4MTgiIHBvaW50cz0iMzAyLjUsNDQwLjg2NzIsMjkyLjUsNDQ0Ljg2NzIsMzAyLjUsNDQ4Ljg2NzIsMjk4LjUsNDQ0Ljg2NzIiIHN0eWxlPSJzdHJva2U6IzE4MTgxODtzdHJva2Utd2lkdGg6MS4wOyIvPjxsaW5lIHN0eWxlPSJzdHJva2U6IzE4MTgxODtzdHJva2Utd2lkdGg6MS4wOyIgeDE9IjI5Ni41IiB4Mj0iNDM2LjUiIHkxPSI0NDQuODY3MiIgeTI9IjQ0NC44NjcyIi8+PHRleHQgZmlsbD0iIzAwMDAwMCIgZm9udC1mYW1pbHk9InNhbnMtc2VyaWYiIGZvbnQtc2l6ZT0iMTMiIGxlbmd0aEFkanVzdD0ic3BhY2luZyIgdGV4dExlbmd0aD0iMTIyIiB4PSIzMDguNSIgeT0iNDQxLjI0MjIiPlBheW1lbnQgc3VjY2Vzc2Z1bDwvdGV4dD48cG9seWdvbiBmaWxsPSIjMTgxODE4IiBwb2ludHM9IjQ3LjUsNDY4Ljc4MTMsMzcuNSw0NzIuNzgxMyw0Ny41LDQ3Ni43ODEzLDQzLjUsNDcyLjc4MTMiIHN0eWxlPSJzdHJva2U6IzE4MTgxODtzdHJva2Utd2lkdGg6MS4wOyIvPjxsaW5lIHN0eWxlPSJzdHJva2U6IzE4MTgxODtzdHJva2Utd2lkdGg6MS4wOyIgeDE9IjQxLjUiIHgyPSIyOTAuNSIgeTE9IjQ3Mi43ODEzIiB5Mj0iNDcyLjc4MTMiLz48dGV4dCBmaWxsPSIjMDAwMDAwIiBmb250LWZhbWlseT0ic2Fucy1zZXJpZiIgZm9udC1zaXplPSIxMyIgbGVuZ3RoQWRqdXN0PSJzcGFjaW5nIiB0ZXh0TGVuZ3RoPSIyMzEiIHg9IjUzLjUiIHk9IjQ2OS4xNTYzIj5EaXNwbGF5IHN1Y2Nlc3NmdWwgcGF5bWVudCBtZXNzYWdlPC90ZXh0Pjxwb2x5Z29uIGZpbGw9IiMxODE4MTgiIHBvaW50cz0iNDI1LjUsNDk2LjY5NTMsNDM1LjUsNTAwLjY5NTMsNDI1LjUsNTA0LjY5NTMsNDI5LjUsNTAwLjY5NTMiIHN0eWxlPSJzdHJva2U6IzE4MTgxODtzdHJva2Utd2lkdGg6MS4wOyIvPjxsaW5lIHN0eWxlPSJzdHJva2U6IzE4MTgxODtzdHJva2Utd2lkdGg6MS4wOyIgeDE9IjI5MS41IiB4Mj0iNDMxLjUiIHkxPSI1MDAuNjk1MyIgeTI9IjUwMC42OTUzIi8+PHRleHQgZmlsbD0iIzAwMDAwMCIgZm9udC1mYW1pbHk9InNhbnMtc2VyaWYiIGZvbnQtc2l6ZT0iMTMiIGxlbmd0aEFkanVzdD0ic3BhY2luZyIgdGV4dExlbmd0aD0iNzAiIHg9IjI5OC41IiB5PSI0OTcuMDcwMyI+U2VhcmNoIGNhcjwvdGV4dD48cG9seWdvbiBmaWxsPSIjMTgxODE4IiBwb2ludHM9IjYxMC41LDUyNC42MDk0LDYyMC41LDUyOC42MDk0LDYxMC41LDUzMi42MDk0LDYxNC41LDUyOC42MDk0IiBzdHlsZT0ic3Ryb2tlOiMxODE4MTg7c3Ryb2tlLXdpZHRoOjEuMDsiLz48bGluZSBzdHlsZT0ic3Ryb2tlOiMxODE4MTg7c3Ryb2tlLXdpZHRoOjEuMDsiIHgxPSI0MzcuNSIgeDI9IjYxNi41IiB5MT0iNTI4LjYwOTQiIHkyPSI1MjguNjA5NCIvPjx0ZXh0IGZpbGw9IiMwMDAwMDAiIGZvbnQtZmFtaWx5PSJzYW5zLXNlcmlmIiBmb250LXNpemU9IjEzIiBsZW5ndGhBZGp1c3Q9InNwYWNpbmciIHRleHRMZW5ndGg9IjcwIiB4PSI0NDQuNSIgeT0iNTI0Ljk4NDQiPlNlYXJjaCBjYXI8L3RleHQ+PHBvbHlnb24gZmlsbD0iIzE4MTgxOCIgcG9pbnRzPSIxMTMsNTUyLjUyMzQsMTAzLDU1Ni41MjM0LDExMyw1NjAuNTIzNCwxMDksNTU2LjUyMzQiIHN0eWxlPSJzdHJva2U6IzE4MTgxODtzdHJva2Utd2lkdGg6MS4wOyIvPjxsaW5lIHN0eWxlPSJzdHJva2U6IzE4MTgxODtzdHJva2Utd2lkdGg6MS4wOyIgeDE9IjEwNyIgeDI9IjYyMS41IiB5MT0iNTU2LjUyMzQiIHkyPSI1NTYuNTIzNCIvPjx0ZXh0IGZpbGw9IiMwMDAwMDAiIGZvbnQtZmFtaWx5PSJzYW5zLXNlcmlmIiBmb250LXNpemU9IjEzIiBsZW5ndGhBZGp1c3Q9InNwYWNpbmciIHRleHRMZW5ndGg9Ijk1IiB4PSIxMTkiIHk9IjU1Mi44OTg0Ij5Db250YWN0IERyaXZlcjwvdGV4dD48cG9seWdvbiBmaWxsPSIjMTgxODE4IiBwb2ludHM9IjYxMC41LDU4MC40Mzc1LDYyMC41LDU4NC40Mzc1LDYxMC41LDU4OC40Mzc1LDYxNC41LDU4NC40Mzc1IiBzdHlsZT0ic3Ryb2tlOiMxODE4MTg7c3Ryb2tlLXdpZHRoOjEuMDsiLz48bGluZSBzdHlsZT0ic3Ryb2tlOiMxODE4MTg7c3Ryb2tlLXdpZHRoOjEuMDsiIHgxPSIxMDIiIHgyPSI2MTYuNSIgeTE9IjU4NC40Mzc1IiB5Mj0iNTg0LjQzNzUiLz48dGV4dCBmaWxsPSIjMDAwMDAwIiBmb250LWZhbWlseT0ic2Fucy1zZXJpZiIgZm9udC1zaXplPSIxMyIgbGVuZ3RoQWRqdXN0PSJzcGFjaW5nIiB0ZXh0TGVuZ3RoPSIxMjIiIHg9IjEwOSIgeT0iNTgwLjgxMjUiPkRyaXZlciBhY2NlcHQgdHJpcDwvdGV4dD48cG9seWdvbiBmaWxsPSIjMTgxODE4IiBwb2ludHM9IjQ0OC41LDYwOC4zNTE2LDQzOC41LDYxMi4zNTE2LDQ0OC41LDYxNi4zNTE2LDQ0NC41LDYxMi4zNTE2IiBzdHlsZT0ic3Ryb2tlOiMxODE4MTg7c3Ryb2tlLXdpZHRoOjEuMDsiLz48bGluZSBzdHlsZT0ic3Ryb2tlOiMxODE4MTg7c3Ryb2tlLXdpZHRoOjEuMDsiIHgxPSI0NDIuNSIgeDI9IjYyMS41IiB5MT0iNjEyLjM1MTYiIHkyPSI2MTIuMzUxNiIvPjx0ZXh0IGZpbGw9IiMwMDAwMDAiIGZvbnQtZmFtaWx5PSJzYW5zLXNlcmlmIiBmb250LXNpemU9IjEzIiBsZW5ndGhBZGp1c3Q9InNwYWNpbmciIHRleHRMZW5ndGg9IjgyIiB4PSI0NTQuNSIgeT0iNjA4LjcyNjYiPkRyaXZlciBmb3VuZDwvdGV4dD48cG9seWdvbiBmaWxsPSIjMTgxODE4IiBwb2ludHM9IjMwMi41LDYzNi4yNjU2LDI5Mi41LDY0MC4yNjU2LDMwMi41LDY0NC4yNjU2LDI5OC41LDY0MC4yNjU2IiBzdHlsZT0ic3Ryb2tlOiMxODE4MTg7c3Ryb2tlLXdpZHRoOjEuMDsiLz48bGluZSBzdHlsZT0ic3Ryb2tlOiMxODE4MTg7c3Ryb2tlLXdpZHRoOjEuMDsiIHgxPSIyOTYuNSIgeDI9IjQzNi41IiB5MT0iNjQwLjI2NTYiIHkyPSI2NDAuMjY1NiIvPjx0ZXh0IGZpbGw9IiMwMDAwMDAiIGZvbnQtZmFtaWx5PSJzYW5zLXNlcmlmIiBmb250LXNpemU9IjEzIiBsZW5ndGhBZGp1c3Q9InNwYWNpbmciIHRleHRMZW5ndGg9IjgyIiB4PSIzMDguNSIgeT0iNjM2LjY0MDYiPkRyaXZlciBmb3VuZDwvdGV4dD48cG9seWdvbiBmaWxsPSIjMTgxODE4IiBwb2ludHM9IjQ3LjUsNjY0LjE3OTcsMzcuNSw2NjguMTc5Nyw0Ny41LDY3Mi4xNzk3LDQzLjUsNjY4LjE3OTciIHN0eWxlPSJzdHJva2U6IzE4MTgxODtzdHJva2Utd2lkdGg6MS4wOyIvPjxsaW5lIHN0eWxlPSJzdHJva2U6IzE4MTgxODtzdHJva2Utd2lkdGg6MS4wOyIgeDE9IjQxLjUiIHgyPSIyOTAuNSIgeTE9IjY2OC4xNzk3IiB5Mj0iNjY4LjE3OTciLz48dGV4dCBmaWxsPSIjMDAwMDAwIiBmb250LWZhbWlseT0ic2Fucy1zZXJpZiIgZm9udC1zaXplPSIxMyIgbGVuZ3RoQWRqdXN0PSJzcGFjaW5nIiB0ZXh0TGVuZ3RoPSIxOTEiIHg9IjUzLjUiIHk9IjY2NC41NTQ3Ij5EaXNwbGF5IGRyaXZlciBmb3VuZCBtZXNzYWdlPC90ZXh0PjwhLS1TUkM9W1ZMOTFSZUdtM0JwcDJYX1JHekx4M3ZMUXpqWDNmVXE3dEUwNVluMTdKYlhmVnp5aTQxTGV3MGJjRjF2Y2FENTRLUVo3NDZLV2hOMjI5LUxoMGJNY3VVYUx0aG5fV0d6ZnNMTmZ6U3dTSVBDZ2FwRlFBWTZDbmIwOGJ6N2NmTW9QNVVZem9mTVFtaVZnSllHR0QxR1lFdW1peGIzcG5JZGt5TjBXVTEwVjdfekFGZktENU1ZeUdVbThsamRRVlRyUTJJRTFuemowQmd2d2x1bHF4RGZmLXB1Mm93dl9EYWZEMGVtc0w4all1elFId0dqY0VTUGF6RHpsRjc3bURpTnpyTUd0NjFCNmJnZnpXcEVYY1d1Q1FZZHpRaGhBRXZ6NG9ZaWtmWUY5OXA4X0RsaUJYSWNFWm4yTFZRZHRlaGg4dzlmenhTdGlpNzJwS2tNZ0ZtMDBdLS0+PC9nPjwvc3ZnPg==;" vertex="1" parent="1">
            <mxGeometry x="240" y="-30" width="660" height="765" as="geometry" />
          </mxCell>
        </UserObject>
      </root>
    </mxGraphModel>
  </diagram>
  <diagram id="THwi--uMbHuvB8PIR8YI" name="activity diagram">
    <mxGraphModel dx="1050" dy="1699" grid="1" gridSize="10" guides="1" tooltips="1" connect="1" arrows="1" fold="1" page="1" pageScale="1" pageWidth="827" pageHeight="1169" math="0" shadow="0">
      <root>
        <mxCell id="0" />
        <mxCell id="1" parent="0" />
        <UserObject label="" plantUmlData="{&#xa;  &quot;data&quot;: &quot;@startuml\n\nstart\n\n:User Search Car;\n:Choose Tier of the Car;\n:Pay for trip;\n\nif (Driver accept the order?) then (yes)\n    :Search nearest driver with acceptable tier;\n    :Wait for driver;\n    :Reach Destination;\n    :Rate driver;\nelse (no)\n    :Cancel order;\n    :Refund money;\nendif\n\n:Exit from app;\nstop\n\n@enduml&quot;,&#xa;  &quot;format&quot;: &quot;svg&quot;&#xa;}" id="7-fhijeL6N_vBVwk_XXw-1">
          <mxCell style="shape=image;noLabel=1;verticalAlign=top;aspect=fixed;imageAspect=0;image=data:image/svg+xml,PD94bWwgdmVyc2lvbj0iMS4wIiBlbmNvZGluZz0idXMtYXNjaWkiIHN0YW5kYWxvbmU9Im5vIj8+PHN2ZyB4bWxucz0iaHR0cDovL3d3dy53My5vcmcvMjAwMC9zdmciIHhtbG5zOnhsaW5rPSJodHRwOi8vd3d3LnczLm9yZy8xOTk5L3hsaW5rIiBjb250ZW50U3R5bGVUeXBlPSJ0ZXh0L2NzcyIgaGVpZ2h0PSI1NjlweCIgcHJlc2VydmVBc3BlY3RSYXRpbz0ibm9uZSIgc3R5bGU9IndpZHRoOjQ0MHB4O2hlaWdodDo1NjlweDtiYWNrZ3JvdW5kOiNGRkZGRkY7IiB2ZXJzaW9uPSIxLjEiIHZpZXdCb3g9IjAgMCA0NDAgNTY5IiB3aWR0aD0iNDQwcHgiIHpvb21BbmRQYW49Im1hZ25pZnkiPjxkZWZzLz48Zz48ZWxsaXBzZSBjeD0iMjY5IiBjeT0iMjAiIGZpbGw9IiMyMjIyMjIiIHJ4PSIxMCIgcnk9IjEwIiBzdHlsZT0ic3Ryb2tlOiMyMjIyMjI7c3Ryb2tlLXdpZHRoOjEuMDsiLz48cmVjdCBmaWxsPSIjRjFGMUYxIiBoZWlnaHQ9IjMyLjg0MzgiIHJ4PSIxMi41IiByeT0iMTIuNSIgc3R5bGU9InN0cm9rZTojMTgxODE4O3N0cm9rZS13aWR0aDowLjU7IiB3aWR0aD0iMTIyIiB4PSIyMDgiIHk9IjUwIi8+PHRleHQgZmlsbD0iIzAwMDAwMCIgZm9udC1mYW1pbHk9InNhbnMtc2VyaWYiIGZvbnQtc2l6ZT0iMTIiIGxlbmd0aEFkanVzdD0ic3BhY2luZyIgdGV4dExlbmd0aD0iMTAyIiB4PSIyMTgiIHk9IjcxLjM0MzgiPlVzZXIgU2VhcmNoIENhcjwvdGV4dD48cmVjdCBmaWxsPSIjRjFGMUYxIiBoZWlnaHQ9IjMyLjg0MzgiIHJ4PSIxMi41IiByeT0iMTIuNSIgc3R5bGU9InN0cm9rZTojMTgxODE4O3N0cm9rZS13aWR0aDowLjU7IiB3aWR0aD0iMTY2IiB4PSIxODYiIHk9IjEwMi44NDM4Ii8+PHRleHQgZmlsbD0iIzAwMDAwMCIgZm9udC1mYW1pbHk9InNhbnMtc2VyaWYiIGZvbnQtc2l6ZT0iMTIiIGxlbmd0aEFkanVzdD0ic3BhY2luZyIgdGV4dExlbmd0aD0iMTQ2IiB4PSIxOTYiIHk9IjEyNC4xODc1Ij5DaG9vc2UgVGllciBvZiB0aGUgQ2FyPC90ZXh0PjxyZWN0IGZpbGw9IiNGMUYxRjEiIGhlaWdodD0iMzIuODQzOCIgcng9IjEyLjUiIHJ5PSIxMi41IiBzdHlsZT0ic3Ryb2tlOiMxODE4MTg7c3Ryb2tlLXdpZHRoOjAuNTsiIHdpZHRoPSI5OSIgeD0iMjE5LjUiIHk9IjE1NS42ODc1Ii8+PHRleHQgZmlsbD0iIzAwMDAwMCIgZm9udC1mYW1pbHk9InNhbnMtc2VyaWYiIGZvbnQtc2l6ZT0iMTIiIGxlbmd0aEFkanVzdD0ic3BhY2luZyIgdGV4dExlbmd0aD0iNzkiIHg9IjIyOS41IiB5PSIxNzcuMDMxMyI+UGF5IGZvciB0cmlwPC90ZXh0Pjxwb2x5Z29uIGZpbGw9IiNGMUYxRjEiIHBvaW50cz0iMTk3LDIwOC41MzEzLDM0MSwyMDguNTMxMywzNTMsMjIwLjUzMTMsMzQxLDIzMi41MzEzLDE5NywyMzIuNTMxMywxODUsMjIwLjUzMTMsMTk3LDIwOC41MzEzIiBzdHlsZT0ic3Ryb2tlOiMxODE4MTg7c3Ryb2tlLXdpZHRoOjAuNTsiLz48dGV4dCBmaWxsPSIjMDAwMDAwIiBmb250LWZhbWlseT0ic2Fucy1zZXJpZiIgZm9udC1zaXplPSIxMSIgbGVuZ3RoQWRqdXN0PSJzcGFjaW5nIiB0ZXh0TGVuZ3RoPSIxNDQiIHg9IjE5NyIgeT0iMjI1LjA0MyI+RHJpdmVyIGFjY2VwdCB0aGUgb3JkZXI/PC90ZXh0Pjx0ZXh0IGZpbGw9IiMwMDAwMDAiIGZvbnQtZmFtaWx5PSJzYW5zLXNlcmlmIiBmb250LXNpemU9IjExIiBsZW5ndGhBZGp1c3Q9InNwYWNpbmciIHRleHRMZW5ndGg9IjE4IiB4PSIxNjciIHk9IjIxOS4xNTYzIj55ZXM8L3RleHQ+PHRleHQgZmlsbD0iIzAwMDAwMCIgZm9udC1mYW1pbHk9InNhbnMtc2VyaWYiIGZvbnQtc2l6ZT0iMTEiIGxlbmd0aEFkanVzdD0ic3BhY2luZyIgdGV4dExlbmd0aD0iMTIiIHg9IjM1MyIgeT0iMjE5LjE1NjMiPm5vPC90ZXh0PjxyZWN0IGZpbGw9IiNGMUYxRjEiIGhlaWdodD0iMzIuODQzOCIgcng9IjEyLjUiIHJ5PSIxMi41IiBzdHlsZT0ic3Ryb2tlOiMxODE4MTg7c3Ryb2tlLXdpZHRoOjAuNTsiIHdpZHRoPSIyOTciIHg9IjExIiB5PSIyNDIuNTMxMyIvPjx0ZXh0IGZpbGw9IiMwMDAwMDAiIGZvbnQtZmFtaWx5PSJzYW5zLXNlcmlmIiBmb250LXNpemU9IjEyIiBsZW5ndGhBZGp1c3Q9InNwYWNpbmciIHRleHRMZW5ndGg9IjI3NyIgeD0iMjEiIHk9IjI2My44NzUiPlNlYXJjaCBuZWFyZXN0IGRyaXZlciB3aXRoIGFjY2VwdGFibGUgdGllcjwvdGV4dD48cmVjdCBmaWxsPSIjRjFGMUYxIiBoZWlnaHQ9IjMyLjg0MzgiIHJ4PSIxMi41IiByeT0iMTIuNSIgc3R5bGU9InN0cm9rZTojMTgxODE4O3N0cm9rZS13aWR0aDowLjU7IiB3aWR0aD0iMTE5IiB4PSIxMDAiIHk9IjI5NS4zNzUiLz48dGV4dCBmaWxsPSIjMDAwMDAwIiBmb250LWZhbWlseT0ic2Fucy1zZXJpZiIgZm9udC1zaXplPSIxMiIgbGVuZ3RoQWRqdXN0PSJzcGFjaW5nIiB0ZXh0TGVuZ3RoPSI5OSIgeD0iMTEwIiB5PSIzMTYuNzE4OCI+V2FpdCBmb3IgZHJpdmVyPC90ZXh0PjxyZWN0IGZpbGw9IiNGMUYxRjEiIGhlaWdodD0iMzIuODQzOCIgcng9IjEyLjUiIHJ5PSIxMi41IiBzdHlsZT0ic3Ryb2tlOiMxODE4MTg7c3Ryb2tlLXdpZHRoOjAuNTsiIHdpZHRoPSIxMzMiIHg9IjkzIiB5PSIzNDguMjE4OCIvPjx0ZXh0IGZpbGw9IiMwMDAwMDAiIGZvbnQtZmFtaWx5PSJzYW5zLXNlcmlmIiBmb250LXNpemU9IjEyIiBsZW5ndGhBZGp1c3Q9InNwYWNpbmciIHRleHRMZW5ndGg9IjExMyIgeD0iMTAzIiB5PSIzNjkuNTYyNSI+UmVhY2ggRGVzdGluYXRpb248L3RleHQ+PHJlY3QgZmlsbD0iI0YxRjFGMSIgaGVpZ2h0PSIzMi44NDM4IiByeD0iMTIuNSIgcnk9IjEyLjUiIHN0eWxlPSJzdHJva2U6IzE4MTgxODtzdHJva2Utd2lkdGg6MC41OyIgd2lkdGg9Ijk0IiB4PSIxMTIuNSIgeT0iNDAxLjA2MjUiLz48dGV4dCBmaWxsPSIjMDAwMDAwIiBmb250LWZhbWlseT0ic2Fucy1zZXJpZiIgZm9udC1zaXplPSIxMiIgbGVuZ3RoQWRqdXN0PSJzcGFjaW5nIiB0ZXh0TGVuZ3RoPSI3NCIgeD0iMTIyLjUiIHk9IjQyMi40MDYzIj5SYXRlIGRyaXZlcjwvdGV4dD48cmVjdCBmaWxsPSIjRjFGMUYxIiBoZWlnaHQ9IjMyLjg0MzgiIHJ4PSIxMi41IiByeT0iMTIuNSIgc3R5bGU9InN0cm9rZTojMTgxODE4O3N0cm9rZS13aWR0aDowLjU7IiB3aWR0aD0iMTAxIiB4PSIzMjgiIHk9IjI0Mi41MzEzIi8+PHRleHQgZmlsbD0iIzAwMDAwMCIgZm9udC1mYW1pbHk9InNhbnMtc2VyaWYiIGZvbnQtc2l6ZT0iMTIiIGxlbmd0aEFkanVzdD0ic3BhY2luZyIgdGV4dExlbmd0aD0iODEiIHg9IjMzOCIgeT0iMjYzLjg3NSI+Q2FuY2VsIG9yZGVyPC90ZXh0PjxyZWN0IGZpbGw9IiNGMUYxRjEiIGhlaWdodD0iMzIuODQzOCIgcng9IjEyLjUiIHJ5PSIxMi41IiBzdHlsZT0ic3Ryb2tlOiMxODE4MTg7c3Ryb2tlLXdpZHRoOjAuNTsiIHdpZHRoPSIxMDEiIHg9IjMyOCIgeT0iMjk1LjM3NSIvPjx0ZXh0IGZpbGw9IiMwMDAwMDAiIGZvbnQtZmFtaWx5PSJzYW5zLXNlcmlmIiBmb250LXNpemU9IjEyIiBsZW5ndGhBZGp1c3Q9InNwYWNpbmciIHRleHRMZW5ndGg9IjgxIiB4PSIzMzgiIHk9IjMxNi43MTg4Ij5SZWZ1bmQgbW9uZXk8L3RleHQ+PHBvbHlnb24gZmlsbD0iI0YxRjFGMSIgcG9pbnRzPSIyNjksNDM5LjkwNjMsMjgxLDQ1MS45MDYzLDI2OSw0NjMuOTA2MywyNTcsNDUxLjkwNjMsMjY5LDQzOS45MDYzIiBzdHlsZT0ic3Ryb2tlOiMxODE4MTg7c3Ryb2tlLXdpZHRoOjAuNTsiLz48cmVjdCBmaWxsPSIjRjFGMUYxIiBoZWlnaHQ9IjMyLjg0MzgiIHJ4PSIxMi41IiByeT0iMTIuNSIgc3R5bGU9InN0cm9rZTojMTgxODE4O3N0cm9rZS13aWR0aDowLjU7IiB3aWR0aD0iMTA0IiB4PSIyMTciIHk9IjQ4My45MDYzIi8+PHRleHQgZmlsbD0iIzAwMDAwMCIgZm9udC1mYW1pbHk9InNhbnMtc2VyaWYiIGZvbnQtc2l6ZT0iMTIiIGxlbmd0aEFkanVzdD0ic3BhY2luZyIgdGV4dExlbmd0aD0iODQiIHg9IjIyNyIgeT0iNTA1LjI1Ij5FeGl0IGZyb20gYXBwPC90ZXh0PjxlbGxpcHNlIGN4PSIyNjkiIGN5PSI1NDcuNzUiIGZpbGw9Im5vbmUiIHJ4PSIxMSIgcnk9IjExIiBzdHlsZT0ic3Ryb2tlOiMyMjIyMjI7c3Ryb2tlLXdpZHRoOjEuMDsiLz48ZWxsaXBzZSBjeD0iMjY5IiBjeT0iNTQ3Ljc1IiBmaWxsPSIjMjIyMjIyIiByeD0iNiIgcnk9IjYiIHN0eWxlPSJzdHJva2U6IzIyMjIyMjtzdHJva2Utd2lkdGg6MS4wOyIvPjxsaW5lIHN0eWxlPSJzdHJva2U6IzE4MTgxODtzdHJva2Utd2lkdGg6MS4wOyIgeDE9IjI2OSIgeDI9IjI2OSIgeTE9IjMwIiB5Mj0iNTAiLz48cG9seWdvbiBmaWxsPSIjMTgxODE4IiBwb2ludHM9IjI2NSw0MCwyNjksNTAsMjczLDQwLDI2OSw0NCIgc3R5bGU9InN0cm9rZTojMTgxODE4O3N0cm9rZS13aWR0aDoxLjA7Ii8+PGxpbmUgc3R5bGU9InN0cm9rZTojMTgxODE4O3N0cm9rZS13aWR0aDoxLjA7IiB4MT0iMjY5IiB4Mj0iMjY5IiB5MT0iODIuODQzOCIgeTI9IjEwMi44NDM4Ii8+PHBvbHlnb24gZmlsbD0iIzE4MTgxOCIgcG9pbnRzPSIyNjUsOTIuODQzOCwyNjksMTAyLjg0MzgsMjczLDkyLjg0MzgsMjY5LDk2Ljg0MzgiIHN0eWxlPSJzdHJva2U6IzE4MTgxODtzdHJva2Utd2lkdGg6MS4wOyIvPjxsaW5lIHN0eWxlPSJzdHJva2U6IzE4MTgxODtzdHJva2Utd2lkdGg6MS4wOyIgeDE9IjI2OSIgeDI9IjI2OSIgeTE9IjEzNS42ODc1IiB5Mj0iMTU1LjY4NzUiLz48cG9seWdvbiBmaWxsPSIjMTgxODE4IiBwb2ludHM9IjI2NSwxNDUuNjg3NSwyNjksMTU1LjY4NzUsMjczLDE0NS42ODc1LDI2OSwxNDkuNjg3NSIgc3R5bGU9InN0cm9rZTojMTgxODE4O3N0cm9rZS13aWR0aDoxLjA7Ii8+PGxpbmUgc3R5bGU9InN0cm9rZTojMTgxODE4O3N0cm9rZS13aWR0aDoxLjA7IiB4MT0iMTU5LjUiIHgyPSIxNTkuNSIgeTE9IjI3NS4zNzUiIHkyPSIyOTUuMzc1Ii8+PHBvbHlnb24gZmlsbD0iIzE4MTgxOCIgcG9pbnRzPSIxNTUuNSwyODUuMzc1LDE1OS41LDI5NS4zNzUsMTYzLjUsMjg1LjM3NSwxNTkuNSwyODkuMzc1IiBzdHlsZT0ic3Ryb2tlOiMxODE4MTg7c3Ryb2tlLXdpZHRoOjEuMDsiLz48bGluZSBzdHlsZT0ic3Ryb2tlOiMxODE4MTg7c3Ryb2tlLXdpZHRoOjEuMDsiIHgxPSIxNTkuNSIgeDI9IjE1OS41IiB5MT0iMzI4LjIxODgiIHkyPSIzNDguMjE4OCIvPjxwb2x5Z29uIGZpbGw9IiMxODE4MTgiIHBvaW50cz0iMTU1LjUsMzM4LjIxODgsMTU5LjUsMzQ4LjIxODgsMTYzLjUsMzM4LjIxODgsMTU5LjUsMzQyLjIxODgiIHN0eWxlPSJzdHJva2U6IzE4MTgxODtzdHJva2Utd2lkdGg6MS4wOyIvPjxsaW5lIHN0eWxlPSJzdHJva2U6IzE4MTgxODtzdHJva2Utd2lkdGg6MS4wOyIgeDE9IjE1OS41IiB4Mj0iMTU5LjUiIHkxPSIzODEuMDYyNSIgeTI9IjQwMS4wNjI1Ii8+PHBvbHlnb24gZmlsbD0iIzE4MTgxOCIgcG9pbnRzPSIxNTUuNSwzOTEuMDYyNSwxNTkuNSw0MDEuMDYyNSwxNjMuNSwzOTEuMDYyNSwxNTkuNSwzOTUuMDYyNSIgc3R5bGU9InN0cm9rZTojMTgxODE4O3N0cm9rZS13aWR0aDoxLjA7Ii8+PGxpbmUgc3R5bGU9InN0cm9rZTojMTgxODE4O3N0cm9rZS13aWR0aDoxLjA7IiB4MT0iMzc4LjUiIHgyPSIzNzguNSIgeTE9IjI3NS4zNzUiIHkyPSIyOTUuMzc1Ii8+PHBvbHlnb24gZmlsbD0iIzE4MTgxOCIgcG9pbnRzPSIzNzQuNSwyODUuMzc1LDM3OC41LDI5NS4zNzUsMzgyLjUsMjg1LjM3NSwzNzguNSwyODkuMzc1IiBzdHlsZT0ic3Ryb2tlOiMxODE4MTg7c3Ryb2tlLXdpZHRoOjEuMDsiLz48bGluZSBzdHlsZT0ic3Ryb2tlOiMxODE4MTg7c3Ryb2tlLXdpZHRoOjEuMDsiIHgxPSIxODUiIHgyPSIxNTkuNSIgeTE9IjIyMC41MzEzIiB5Mj0iMjIwLjUzMTMiLz48bGluZSBzdHlsZT0ic3Ryb2tlOiMxODE4MTg7c3Ryb2tlLXdpZHRoOjEuMDsiIHgxPSIxNTkuNSIgeDI9IjE1OS41IiB5MT0iMjIwLjUzMTMiIHkyPSIyNDIuNTMxMyIvPjxwb2x5Z29uIGZpbGw9IiMxODE4MTgiIHBvaW50cz0iMTU1LjUsMjMyLjUzMTMsMTU5LjUsMjQyLjUzMTMsMTYzLjUsMjMyLjUzMTMsMTU5LjUsMjM2LjUzMTMiIHN0eWxlPSJzdHJva2U6IzE4MTgxODtzdHJva2Utd2lkdGg6MS4wOyIvPjxsaW5lIHN0eWxlPSJzdHJva2U6IzE4MTgxODtzdHJva2Utd2lkdGg6MS4wOyIgeDE9IjM1MyIgeDI9IjM3OC41IiB5MT0iMjIwLjUzMTMiIHkyPSIyMjAuNTMxMyIvPjxsaW5lIHN0eWxlPSJzdHJva2U6IzE4MTgxODtzdHJva2Utd2lkdGg6MS4wOyIgeDE9IjM3OC41IiB4Mj0iMzc4LjUiIHkxPSIyMjAuNTMxMyIgeTI9IjI0Mi41MzEzIi8+PHBvbHlnb24gZmlsbD0iIzE4MTgxOCIgcG9pbnRzPSIzNzQuNSwyMzIuNTMxMywzNzguNSwyNDIuNTMxMywzODIuNSwyMzIuNTMxMywzNzguNSwyMzYuNTMxMyIgc3R5bGU9InN0cm9rZTojMTgxODE4O3N0cm9rZS13aWR0aDoxLjA7Ii8+PGxpbmUgc3R5bGU9InN0cm9rZTojMTgxODE4O3N0cm9rZS13aWR0aDoxLjA7IiB4MT0iMTU5LjUiIHgyPSIxNTkuNSIgeTE9IjQzMy45MDYzIiB5Mj0iNDUxLjkwNjMiLz48bGluZSBzdHlsZT0ic3Ryb2tlOiMxODE4MTg7c3Ryb2tlLXdpZHRoOjEuMDsiIHgxPSIxNTkuNSIgeDI9IjI1NyIgeTE9IjQ1MS45MDYzIiB5Mj0iNDUxLjkwNjMiLz48cG9seWdvbiBmaWxsPSIjMTgxODE4IiBwb2ludHM9IjI0Nyw0NDcuOTA2MywyNTcsNDUxLjkwNjMsMjQ3LDQ1NS45MDYzLDI1MSw0NTEuOTA2MyIgc3R5bGU9InN0cm9rZTojMTgxODE4O3N0cm9rZS13aWR0aDoxLjA7Ii8+PGxpbmUgc3R5bGU9InN0cm9rZTojMTgxODE4O3N0cm9rZS13aWR0aDoxLjA7IiB4MT0iMzc4LjUiIHgyPSIzNzguNSIgeTE9IjMyOC4yMTg4IiB5Mj0iNDUxLjkwNjMiLz48bGluZSBzdHlsZT0ic3Ryb2tlOiMxODE4MTg7c3Ryb2tlLXdpZHRoOjEuMDsiIHgxPSIzNzguNSIgeDI9IjI4MSIgeTE9IjQ1MS45MDYzIiB5Mj0iNDUxLjkwNjMiLz48cG9seWdvbiBmaWxsPSIjMTgxODE4IiBwb2ludHM9IjI5MSw0NDcuOTA2MywyODEsNDUxLjkwNjMsMjkxLDQ1NS45MDYzLDI4Nyw0NTEuOTA2MyIgc3R5bGU9InN0cm9rZTojMTgxODE4O3N0cm9rZS13aWR0aDoxLjA7Ii8+PGxpbmUgc3R5bGU9InN0cm9rZTojMTgxODE4O3N0cm9rZS13aWR0aDoxLjA7IiB4MT0iMjY5IiB4Mj0iMjY5IiB5MT0iMTg4LjUzMTMiIHkyPSIyMDguNTMxMyIvPjxwb2x5Z29uIGZpbGw9IiMxODE4MTgiIHBvaW50cz0iMjY1LDE5OC41MzEzLDI2OSwyMDguNTMxMywyNzMsMTk4LjUzMTMsMjY5LDIwMi41MzEzIiBzdHlsZT0ic3Ryb2tlOiMxODE4MTg7c3Ryb2tlLXdpZHRoOjEuMDsiLz48bGluZSBzdHlsZT0ic3Ryb2tlOiMxODE4MTg7c3Ryb2tlLXdpZHRoOjEuMDsiIHgxPSIyNjkiIHgyPSIyNjkiIHkxPSI0NjMuOTA2MyIgeTI9IjQ4My45MDYzIi8+PHBvbHlnb24gZmlsbD0iIzE4MTgxOCIgcG9pbnRzPSIyNjUsNDczLjkwNjMsMjY5LDQ4My45MDYzLDI3Myw0NzMuOTA2MywyNjksNDc3LjkwNjMiIHN0eWxlPSJzdHJva2U6IzE4MTgxODtzdHJva2Utd2lkdGg6MS4wOyIvPjxsaW5lIHN0eWxlPSJzdHJva2U6IzE4MTgxODtzdHJva2Utd2lkdGg6MS4wOyIgeDE9IjI2OSIgeDI9IjI2OSIgeTE9IjUxNi43NSIgeTI9IjUzNi43NSIvPjxwb2x5Z29uIGZpbGw9IiMxODE4MTgiIHBvaW50cz0iMjY1LDUyNi43NSwyNjksNTM2Ljc1LDI3Myw1MjYuNzUsMjY5LDUzMC43NSIgc3R5bGU9InN0cm9rZTojMTgxODE4O3N0cm9rZS13aWR0aDoxLjA7Ii8+PCEtLVNSQz1bRlAwblJpQ20zNEx0ZE9BWlZHTHh3RTFxQnZlS2RIY1JXV2F1ZjQ0bkpOcHhDQjRRQkhCOF9feVpMSHBESy1mLTJYYVMyTXNTT0szaEtwVkNnZU5XbkQ3RzMzdkpSTnBYMWJhRHQ3WmpLLThDcFM3dUJzR3VaaEp3SXdlc2FOc3FweFQwaXI1ZjR5SmZBYUJZZWs4bXhTT1ItcnBUVTV1OEZBM3pSbFg1elhUa2J6UmdEczZhNzJBMjFQckxfa2xlejVSSTRsQ3RlWEt6ZThvcXg5RXpPXzlMOWhZZXExUHdjSlo3TnRwVWRxWkoyLTBRNm5STnpHNDBdLS0+PC9nPjwvc3ZnPg==;" vertex="1" parent="1">
            <mxGeometry x="190" y="-10" width="440" height="569" as="geometry" />
          </mxCell>
        </UserObject>
      </root>
    </mxGraphModel>
  </diagram>
</mxfile>
